<svg viewBox="0 0 1073.3333740234375 400.0000305175781" xmlns="http://www.w3.org/2000/svg"><g><g><g><g><g><line x1="41.171875" y1="377" x2="36.171875" y2="377" style="visibility: inherit;" fill="rgb(0, 0, 0)" stroke="rgb(204, 204, 204)" stroke-width="1px"></line><line x1="41.171875" y1="339.3" x2="36.171875" y2="339.3" style="visibility: inherit;" fill="rgb(0, 0, 0)" stroke="rgb(204, 204, 204)" stroke-width="1px"></line><line x1="41.171875" y1="301.6" x2="36.171875" y2="301.6" style="visibility: inherit;" fill="rgb(0, 0, 0)" stroke="rgb(204, 204, 204)" stroke-width="1px"></line><line x1="41.171875" y1="263.9" x2="36.171875" y2="263.9" style="visibility: inherit;" fill="rgb(0, 0, 0)" stroke="rgb(204, 204, 204)" stroke-width="1px"></line><line x1="41.171875" y1="226.20000000000005" x2="36.171875" y2="226.20000000000005" style="visibility: inherit;" fill="rgb(0, 0, 0)" stroke="rgb(204, 204, 204)" stroke-width="1px"></line><line x1="41.171875" y1="188.5" x2="36.171875" y2="188.5" style="visibility: inherit;" fill="rgb(0, 0, 0)" stroke="rgb(204, 204, 204)" stroke-width="1px"></line><line x1="41.171875" y1="150.79999999999995" x2="36.171875" y2="150.79999999999995" style="visibility: inherit;" fill="rgb(0, 0, 0)" stroke="rgb(204, 204, 204)" stroke-width="1px"></line><line x1="41.171875" y1="113.10000000000002" x2="36.171875" y2="113.10000000000002" style="visibility: inherit;" fill="rgb(0, 0, 0)" stroke="rgb(204, 204, 204)" stroke-width="1px"></line><line x1="41.171875" y1="75.39999999999998" x2="36.171875" y2="75.39999999999998" style="visibility: inherit;" fill="rgb(0, 0, 0)" stroke="rgb(204, 204, 204)" stroke-width="1px"></line><line x1="41.171875" y1="37.69999999999995" x2="36.171875" y2="37.69999999999995" style="visibility: inherit;" fill="rgb(0, 0, 0)" stroke="rgb(204, 204, 204)" stroke-width="1px"></line><line x1="41.171875" y1="0" x2="36.171875" y2="0" style="visibility: inherit;" fill="rgb(0, 0, 0)" stroke="rgb(204, 204, 204)" stroke-width="1px"></line></g><g transform="translate(31.171875, 0)"><text x="0" y="377" dx="0em" dy="0.3em" style="text-anchor: end; visibility: hidden; font-family: Roboto, sans-serif; font-size: 12px; font-weight: 200;" fill="rgb(33, 33, 33)" stroke="none" stroke-width="1px">0.2</text><text x="0" y="339.3" dx="0em" dy="0.3em" style="text-anchor: end; visibility: inherit; font-family: Roboto, sans-serif; font-size: 12px; font-weight: 200;" fill="rgb(33, 33, 33)" stroke="none" stroke-width="1px">0.3</text><text x="0" y="301.6" dx="0em" dy="0.3em" style="text-anchor: end; visibility: inherit; font-family: Roboto, sans-serif; font-size: 12px; font-weight: 200;" fill="rgb(33, 33, 33)" stroke="none" stroke-width="1px">0.4</text><text x="0" y="263.9" dx="0em" dy="0.3em" style="text-anchor: end; visibility: inherit; font-family: Roboto, sans-serif; font-size: 12px; font-weight: 200;" fill="rgb(33, 33, 33)" stroke="none" stroke-width="1px">0.5</text><text x="0" y="226.20000000000005" dx="0em" dy="0.3em" style="text-anchor: end; visibility: inherit; font-family: Roboto, sans-serif; font-size: 12px; font-weight: 200;" fill="rgb(33, 33, 33)" stroke="none" stroke-width="1px">0.6</text><text x="0" y="188.5" dx="0em" dy="0.3em" style="text-anchor: end; visibility: inherit; font-family: Roboto, sans-serif; font-size: 12px; font-weight: 200;" fill="rgb(33, 33, 33)" stroke="none" stroke-width="1px">0.7</text><text x="0" y="150.79999999999995" dx="0em" dy="0.3em" style="text-anchor: end; visibility: inherit; font-family: Roboto, sans-serif; font-size: 12px; font-weight: 200;" fill="rgb(33, 33, 33)" stroke="none" stroke-width="1px">0.8</text><text x="0" y="113.10000000000002" dx="0em" dy="0.3em" style="text-anchor: end; visibility: inherit; font-family: Roboto, sans-serif; font-size: 12px; font-weight: 200;" fill="rgb(33, 33, 33)" stroke="none" stroke-width="1px">0.9</text><text x="0" y="75.39999999999998" dx="0em" dy="0.3em" style="text-anchor: end; visibility: inherit; font-family: Roboto, sans-serif; font-size: 12px; font-weight: 200;" fill="rgb(33, 33, 33)" stroke="none" stroke-width="1px">1</text><text x="0" y="37.69999999999995" dx="0em" dy="0.3em" style="text-anchor: end; visibility: inherit; font-family: Roboto, sans-serif; font-size: 12px; font-weight: 200;" fill="rgb(33, 33, 33)" stroke="none" stroke-width="1px">1.1</text><text x="0" y="0" dx="0em" dy="0.3em" style="text-anchor: end; visibility: hidden; font-family: Roboto, sans-serif; font-size: 12px; font-weight: 200;" fill="rgb(33, 33, 33)" stroke="none" stroke-width="1px">1.2</text></g><line x1="41.171875" y1="0" x2="41.171875" y2="377" fill="rgb(0, 0, 0)" stroke="rgb(204, 204, 204)" stroke-width="1px"></line></g></g><g transform="translate(41, 0)" clip-path="url(#clip_0)"><clipPath id="clip_0"><rect width="1032" height="376"></rect></clipPath><g><g><g><line x1="0" y1="0" x2="0" y2="377" fill="rgb(0, 0, 0)" stroke="rgb(66, 66, 66)" stroke-width="1px" opacity="0.25"></line><line x1="103.2158125" y1="0" x2="103.2158125" y2="377" fill="rgb(0, 0, 0)" stroke="rgb(66, 66, 66)" stroke-width="1px" opacity="0.25"></line><line x1="206.431625" y1="0" x2="206.431625" y2="377" fill="rgb(0, 0, 0)" stroke="rgb(66, 66, 66)" stroke-width="1px" opacity="0.25"></line><line x1="309.64743749999997" y1="0" x2="309.64743749999997" y2="377" fill="rgb(0, 0, 0)" stroke="rgb(66, 66, 66)" stroke-width="1px" opacity="0.25"></line><line x1="412.86325" y1="0" x2="412.86325" y2="377" fill="rgb(0, 0, 0)" stroke="rgb(66, 66, 66)" stroke-width="1px" opacity="0.25"></line><line x1="516.0790625" y1="0" x2="516.0790625" y2="377" fill="rgb(0, 0, 0)" stroke="rgb(66, 66, 66)" stroke-width="1px" opacity="0.25"></line><line x1="619.2948749999999" y1="0" x2="619.2948749999999" y2="377" fill="rgb(0, 0, 0)" stroke="rgb(66, 66, 66)" stroke-width="1px" opacity="0.25"></line><line x1="722.5106874999999" y1="0" x2="722.5106874999999" y2="377" fill="rgb(0, 0, 0)" stroke="rgb(66, 66, 66)" stroke-width="1px" opacity="0.25"></line><line x1="825.7265" y1="0" x2="825.7265" y2="377" fill="rgb(0, 0, 0)" stroke="rgb(66, 66, 66)" stroke-width="1px" opacity="0.25"></line><line x1="928.9423125" y1="0" x2="928.9423125" y2="377" fill="rgb(0, 0, 0)" stroke="rgb(66, 66, 66)" stroke-width="1px" opacity="0.25"></line><line x1="1032.158125" y1="0" x2="1032.158125" y2="377" fill="rgb(0, 0, 0)" stroke="rgb(66, 66, 66)" stroke-width="1px" opacity="0.25"></line></g><g><line x1="0" y1="377" x2="1032.158125" y2="377" fill="rgb(0, 0, 0)" stroke="rgb(66, 66, 66)" stroke-width="1px" opacity="0.25"></line><line x1="0" y1="339.3" x2="1032.158125" y2="339.3" fill="rgb(0, 0, 0)" stroke="rgb(66, 66, 66)" stroke-width="1px" opacity="0.25"></line><line x1="0" y1="301.6" x2="1032.158125" y2="301.6" fill="rgb(0, 0, 0)" stroke="rgb(66, 66, 66)" stroke-width="1px" opacity="0.25"></line><line x1="0" y1="263.9" x2="1032.158125" y2="263.9" fill="rgb(0, 0, 0)" stroke="rgb(66, 66, 66)" stroke-width="1px" opacity="0.25"></line><line x1="0" y1="226.20000000000005" x2="1032.158125" y2="226.20000000000005" fill="rgb(0, 0, 0)" stroke="rgb(66, 66, 66)" stroke-width="1px" opacity="0.25"></line><line x1="0" y1="188.5" x2="1032.158125" y2="188.5" fill="rgb(0, 0, 0)" stroke="rgb(66, 66, 66)" stroke-width="1px" opacity="0.25"></line><line x1="0" y1="150.79999999999995" x2="1032.158125" y2="150.79999999999995" fill="rgb(0, 0, 0)" stroke="rgb(66, 66, 66)" stroke-width="1px" opacity="0.25"></line><line x1="0" y1="113.10000000000002" x2="1032.158125" y2="113.10000000000002" fill="rgb(0, 0, 0)" stroke="rgb(66, 66, 66)" stroke-width="1px" opacity="0.25"></line><line x1="0" y1="75.39999999999998" x2="1032.158125" y2="75.39999999999998" fill="rgb(0, 0, 0)" stroke="rgb(66, 66, 66)" stroke-width="1px" opacity="0.25"></line><line x1="0" y1="37.69999999999995" x2="1032.158125" y2="37.69999999999995" fill="rgb(0, 0, 0)" stroke="rgb(66, 66, 66)" stroke-width="1px" opacity="0.25"></line><line x1="0" y1="0" x2="1032.158125" y2="0" fill="rgb(0, 0, 0)" stroke="rgb(66, 66, 66)" stroke-width="1px" opacity="0.25"></line></g></g></g><g><g><line x1="0" y1="452.4" x2="1032.158125" y2="452.4" fill="rgb(0, 0, 0)" stroke="rgb(153, 153, 153)" stroke-width="1.5px"></line></g></g><g><g><line x1="103.2158125" y1="0" x2="103.2158125" y2="377" fill="rgb(0, 0, 0)" stroke="rgb(153, 153, 153)" stroke-width="1.5px"></line></g></g><g><g><g><g><g><path stroke="rgb(204, 51, 17)" stroke-width="2px" d="M116.12811064374999,-80.03026530742648L117.56281043749999,43.25575389862059L118.99751023124999,118.71042122840879L120.432210025,181.52117874622343L121.86690981874999,220.94037278890607L123.30160961249999,244.22270497083662L124.73630940624999,259.6860450148582L126.17100919999999,270.7923687636852L127.60570899375,277.5172165870666L129.04040878749998,282.25878950357435L130.47510858125,286.7330255150795L131.90980837499998,290.409082108736L133.34450816875,292.5672371923923L134.77920796249998,295.04698529243467L136.21390775625,297.6378859519958L137.64860755,299.79055812358854L139.08330734375,302.01353066563604L140.5180071375,303.18942430019376L141.95270693125,304.3800588786602L143.38740672499998,305.59849002361295L144.82210651875,306.5169227361679L146.25680631249998,307.7600157499313L147.69150610625,308.37510185837743L149.12620589999997,308.6347986400127L150.56090569375,309.42585476636884L151.9956054875,309.992268794775L153.43030528124999,310.32754662036893L154.865005075,310.5157296001911L156.29970486874998,310.91604959368703L157.7344046625,310.86771457791326L159.16910445625,311.4199382007122L160.60380424999997,311.4448472499847L162.03850404374998,311.3552330970764L163.4732038375,311.83596538901327L164.90790363124998,311.60591902732847L166.342603425,312.14117708206174L167.77730321874998,312.351201826334L169.2120030125,312.4917239189148L170.64670280625,312.3208323359489L172.0814026,312.66981744170187L173.51610239375,313.08779960274694L174.9508021875,313.1745150029659L176.38550198124997,313.0640028655529L177.820201775,313.3676528275013L179.25490156874997,313.79679181575773L180.68960136249999,312.9799615085125L182.12430115624997,313.80720710158346L183.55900094999998,313.74610858559606L184.99370074375,314.4278435349464L186.42840053749998,314.91247453689573L187.86310033125,314.8943404793739L189.29780012499998,315.6532631456852L190.73249991875,316.4351735949516L192.1671997125,316.99588000178335L193.60189950624996,317.8097104370594L195.03659929999998,318.3578780531883L196.47129909375,319.4708193182945L197.90599888749998,320.3078959524631L199.34069868125,320.75893288254736L200.77539847499997,322.48270201086996L202.21009826875,323.4567840337753L203.6447980625,323.95879631638525L205.07949785625,324.9865614414215L206.51419765,325.5146175563335L207.94889744374998,326.4706104636192L209.3835972375,326.94851141571996L210.81829703124998,327.5505868434906L212.25299682499997,327.8376869499683L213.68769661874998,328.3493055641651L215.12239641249997,328.6041710913181L216.55709620624998,329.049792522192L217.991796,329.0113671958446L219.42649579374998,329.56965797543523L220.8611955875,329.2837263584137L222.29589538124998,329.8205573797226L223.730595175,330.1066125869751L225.16529496875,329.7889856934547L226.5999947625,329.71471920013425L228.03469455624997,330.08973690271375L229.46939435,330.5967377364635L230.90409414374997,330.4295201539993L232.3387939375,330.90000569224355L233.77349373124997,330.91352196931837L235.20819352499998,331.10973831415174L236.64289331875,331.76431711912153L238.07759311249998,331.1599496543407L239.51229290625,331.774103218317L240.94699269999998,332.0137109696865L242.38169249375,331.7356891274452L243.8163922875,332.3084174931049L245.25109208124996,332.4978139042854L246.68579187499998,332.42144637703893L248.12049166874996,332.2252974450588L249.55519146249998,332.3903802871704L250.98989125625,332.91758250594137L252.42459104999998,332.783475869894L253.85929084375,333.39104544520376L255.29399063749997,333.4728509426117L256.72869043125,333.3007009863853L258.163390225,333.7077510297298L259.59809001875,333.42914494276044L261.03278981249997,334.00069358348844L262.46748960625,334.1468221783638L263.9021894,334.12812634706495L265.33688919375,334.2799400925636L266.7715889875,334.2415597081184L268.20628878125,334.53825491070745L269.640988575,334.9644052624702L271.07568836875,334.8395454227924L272.51038816249996,335.2904362916946L273.94508795624995,334.78735663890836L275.37978774999993,335.59854673743246L276.81448754375,335.3890388250351L278.24918733749996,335.906151586771L279.68388713124995,335.9168702304363L281.118586925,335.811593824625L282.55328671875,335.7654609620571L283.98798651249996,336.2280704319477L285.42268630625,335.6335901856422L286.8573861,336.58240362405775L288.29208589374997,336.85858284831045L289.7267856875,336.5038564145565L291.16148548125,337.14628967046735L292.596185275,336.16348891854284L294.03088506874997,337.00411596298215L295.4655848625,336.8276628196239L296.90028465625,337.46280425190923L298.33498445,337.54508163928983L299.76968424375,337.62993195056913L301.2043840375,337.8921454787254L302.63908383125,337.7203438222408L304.073783625,337.6420662641525L305.50848341874996,338.0631044745445L306.94318321249995,338.23298486471174L308.37788300624993,338.48574935793874L309.8125828,338.5690491735935L311.24728259374996,338.2768706321716L312.68198238749994,338.1412359714508L314.11668218125,338.42534744143484L315.55138197499997,338.71462723016737L316.98608176874995,338.82229679226873L318.4207815625,338.2795334398746L319.85548135625,339.0263667345047L321.29018114999997,338.59125047326086L322.72488094375,339.2143362402916L324.1595807375,338.9024956166744L325.59428053125,339.33396034836767L327.02898032499996,339.13647439479826L328.46368011875,339.4821337997913L329.8983799125,339.4200465619564L331.33307970625,339.16394513249395L332.7677795,339.64078994989393L334.20247929375,339.54388397336004L335.6371790875,339.1899215519428L337.07187888125003,339.81024339199064L338.50657867499996,339.7933115303516L339.94127846874994,339.670328015089L341.3759782624999,339.75768383741377L342.81067805624997,340.0733669936657L344.24537784999995,339.9852808654308L345.68007764374994,339.7197528719902L347.1147774375,340.02185233831403L348.54947723124997,340.14979069828985L349.98417702499995,339.9577202439308L351.41887681875,339.792154276371L352.8535766125,340.1677674591541L354.28827640624996,340.3882524311542L355.7229762,340.02490838766096L357.15767599375,339.9469454228878L358.5923757875,340.0598844230175L360.02707558124996,340.3600963294506L361.461775375,340.02716671824453L362.89647516875,340.38610645532606L364.3311749625,339.9153625011444L365.76587475625,340.3934544563293L367.20057455,340.56981771588323L368.63527434375,340.52019062042234L370.0699741375,340.35765823125837L371.50467393125,340.49224799275396L372.93937372499994,340.54452666044233L374.3740735187499,340.7081713616848L375.80877331249997,340.6881722152233L377.24347310624995,340.7999314904213L378.67817289999994,340.60149052143095L380.11287269375,340.75729286074636L381.54757248749996,340.36733197569845L382.98227228124995,340.5949851810932L384.416972075,340.4899334847927L385.85167186875,340.419239872694L387.28637166249996,340.24429228305814L388.72107145624994,340.675082886219L390.15577125,340.6071532011032L391.59047104375,340.9224431157112L393.02517083749996,340.5204378008842L394.45987063125,340.77973010540006L395.894570425,340.60062538981435L397.32927021874997,340.5708176732063L398.7639700125,340.4576764345169L400.19866980625,340.74165307879446L401.6333696,340.98236190676687L403.06806939375,340.911477291584L404.5027691875,340.8842649698257L405.93746898124994,340.9768340528011L407.3721687749999,341.24010371565817L408.80686856874996,340.9212970972061L410.24156836249995,340.8071559011936L411.67626815624993,340.9326898694038L413.11096795,340.9381727814674L414.54566774374996,341.10612066984174L415.98036753749994,341.09969397783277L417.41506733125,341.10131188631055L418.84976712499997,340.9937322080135L420.28446691874996,341.0189895570278L421.71916671249994,340.81998681426046L423.15386650625,340.84259259104726L424.58856629999997,340.6175123095512L426.02326609374995,341.04672994613645L427.4579658875,341.10226690173147L428.89266568125,340.952745193243L430.32736547499997,341.0716165244579L431.76206526875,340.9979792177677L433.1967650625,341.23377814292905L434.63146485625,341.20334123969076L436.06616465,341.35616617798803L437.50086444375,341.0747512221336L438.9355642375,341.47764413952825L440.3702640312499,341.63187351226804L441.80496382499996,341.4628357827663L443.23966361874994,341.11065980195997L444.67436341249993,341.42407339215276L446.10906320624997,341.55066349506376L447.54376299999996,341.0537970602512L448.97846279374994,341.4280844569206L450.4131625875,341.31580834984777L451.84786238124997,341.11507534384725L453.28256217499995,341.802517914772L454.71726196874994,341.8967610836029L456.1519617625,342.1437168359756L457.58666155624996,341.78210305571554L459.02136134999995,341.56386517882345L460.45606114375,341.81721391677854L461.8907609375,341.8725711047649L463.32546073124996,341.74456533193586L464.760160525,342.0091383099556L466.19486031875,342.1087632715702L467.6295601125,342.0175424456596L469.06425990625,342.17659183740614L470.4989597,342.32238336801527L471.93365949375,341.9088729262352L473.36835928749997,342.0332046985626L474.80305908124996,342.1188414931297L476.23775887499994,342.3216642975807L477.6724586687499,342.5695638298988L479.10715846249997,342.2175676167011L480.54185825624995,342.2107476830482L481.97655804999994,342.2515549302101L483.41125784375,342.38087525367735L484.84595763749996,342.53029584288595L486.28065743124995,342.2454315960407L487.71535722499993,342.4810170471668L489.15005701875,342.2986428081989L490.58475681249996,342.40997513532636L492.01945660624995,342.3480676651001L493.4541564,342.6764019668102L494.88885619375,342.1665585577488L496.32355598749996,342.63380827903745L497.75825578125,342.41632317900655L499.192955575,342.59092246890066L500.62765536874997,342.6406506836414L502.0623551625,342.710760051012L503.49705495625,342.65235804915426L504.93175475,342.19656851291654L506.36645454374997,342.63234766721723L507.80115433749995,342.79032968878744L509.23585413124994,342.5858440339565L510.6705539249999,342.61646070480344L512.10525371875,342.6015624642372L513.5399535124999,342.86855106949804L514.9746533062499,342.69319900274274L516.4093531,342.70179414153097L517.8440528937499,343.2485123813152L519.2787526875,343.09602450728414L520.71345248125,342.62928038239477L522.1481522749999,342.6575151324272L523.58285206875,342.65848138332365L525.0175518625,343.11742808818815L526.4522516562499,342.68136804699895L527.88695145,342.8535966515541L529.32165124375,342.7652858138084L530.7563510374999,343.0589699089527L532.19105083125,342.9293012857437L533.625750625,342.76015120148656L535.06045041875,343.08235093355177L536.4951502125,342.6961764037609L537.92985000625,343.1164618372917L539.3645498,343.19007667303083L540.79924959375,343.2072107732296L542.2339493875,343.47297471165655L543.66864918125,343.2056153357029L545.103348975,343.1627857029438L546.53804876875,343.3187341034412L547.9727485625,343.1411349415779L549.40744835625,343.5530836522579L550.84214815,342.6959854006767L552.27684794375,343.42180835604665L553.7115477375,343.309577190876L555.14624753125,343.0852159798145L556.580947325,343.29613956212995L558.01564711875,343.5174671947956L559.4503469124999,343.4503914058208L560.8850467062499,343.1477638721466L562.3197465,343.2365016579628L563.7544462937499,343.3737317562103L565.1891460874999,343.5805319190025L566.62384588125,343.30271231532095L568.0585456749999,343.3023864865303L569.4932454687499,343.36386700868604L570.9279452625,343.11292266249654L572.3626450562499,343.19690784215925L573.79734485,343.6030815184116L575.23204464375,343.5204670667648L576.6667444374999,343.56285851597784L578.10144423125,342.9406041741371L579.5361440249999,343.6464729249477L580.9708438187499,343.3006899297237L582.4055436125,343.65001209974287L583.8402434062499,343.5647236049175L585.2749431999999,343.7363005518913L586.70964299375,343.5011869907379L588.1443427874999,343.74000825881956L589.57904258125,343.36294569969175L591.013742375,343.47599705457685L592.4484421687499,343.73706456422804L593.8831419625,343.3320481419563L595.31784175625,343.5662291586399L596.7525415499999,343.5131977140903L598.18724134375,343.46099769473074L599.6219411375,343.46961530447004L601.05664093125,343.7513448536396L602.491340725,343.50509693622587L603.92604051875,343.3265877008438L605.3607403125,343.60849701762197L606.79544010625,343.52137714028356L608.2301399,343.5408594548702L609.66483969375,343.39341630935667L611.0995394875,343.65093340873716L612.5342392812499,343.4020451545715L613.968939075,343.17405488491056L615.40363886875,343.80191572904585L616.8383386625,343.5907112598419L618.27303845625,343.44788589477537L619.70773825,343.4956816077232L621.14243804375,343.5169615983963L622.5771378375,343.66415756344793L624.01183763125,343.4500431060791L625.446537425,343.7435249626636L626.8812372187499,343.7255032598972L628.3159370125,343.75264816880224L629.7506368062499,343.37569796442983L631.1853365999999,343.74988424181936L632.62003639375,343.712290340662L634.0547361874999,343.4318641066551L635.4894359812499,343.77265855073927L636.924135775,343.64500107765195L638.3588355687499,344.02124344706533L639.7935353624999,343.73668255805967L641.2282351562499,343.82577987909315L642.6629349499999,343.5348934173584L644.09763474375,342.84245105981825L645.5323345374999,343.38823675513265L646.9670343312499,343.59481220841406L648.401734125,343.5884978711605L649.8364339187499,343.9415389835834L651.2711337124999,343.57746463418005L652.70583350625,343.8369928836822L654.1405332999999,343.8743396043777L655.57523309375,343.57083570361135L657.0099328875,343.68589820861814L658.4446326812499,343.8348356723785L659.879332475,343.770344042778L661.31403226875,343.8288696348667L662.7487320624999,343.62376602888105L664.18343185625,343.8833392202854L665.61813165,343.7609174787998L667.0528314437499,343.78834327459333L668.4875312375,343.4266396105289L669.92223103125,343.7805907964706L671.356930825,343.89155235290525L672.79163061875,344.0148055195808L674.2263304124999,343.55645429491994L675.66103020625,343.5700941622257L677.09573,343.75829961299894L678.5304297937499,343.6368104159832L679.9651295875,343.35885598659513L681.39982938125,343.4963782072067L682.834529175,343.777478569746L684.26922896875,343.77508541345594L685.7039287625,343.48156985044477L687.13862855625,343.81676902770994L688.57332835,343.8434757530689L690.00802814375,343.5279948353767L691.4427279375,343.8840470552444L692.87742773125,343.6427427470684L694.3121275249999,343.54629742503164L695.7468273187499,343.86646353602407L697.1815271124999,343.75080555081365L698.61622690625,343.953594648838L700.0509266999999,343.77551236152647L701.4856264937499,343.7596591055393L702.9203262875,343.7221213817596L704.3550260812499,343.899743014574L705.7897258749999,343.75713112354276L707.2244256687499,344.05487122535703L708.6591254624999,344.0590283513069L710.0938252562499,343.94155021905897L711.5285250499999,343.69115641117094L712.9632248437499,343.7782088756561L714.3979246375,343.76190620064733L715.8326244312499,343.950224006176L717.2673242249999,343.3419465959072L718.70202401875,343.7629848062992L720.1367238124999,344.2054603040218L721.5714236062499,343.6936057448387L723.0061234,343.9196522772312L724.4408231937499,343.762939864397L725.8755229875,343.8140163362026L727.31022278125,343.8220497012138L728.7449225749999,343.8306897819042L730.17962236875,343.7810626864433L731.6143221625,343.7264020979404L733.0490219562499,344.03299575448034L734.48372175,344.1935956418514L735.91842154375,344.02542304396627L737.3531213374999,343.9079336762428L738.78782113125,343.9426512956619L740.2225209249999,344.1344296276569L741.65722071875,343.9955254435539L743.0919205125,343.8301280081272L744.5266203062499,344.03705176115034L745.9613201,343.7472326695919L747.39601989375,343.40261816382406L748.8307196874999,343.59940751791L750.26541948125,343.95980786681173L751.700119275,343.68368481993673L753.13481906875,343.99640181064603L754.5695188625,344.14976605176923L756.00421865625,344.12325032949445L757.43891845,344.1305983304977L758.87361824375,343.6302488982677L760.3083180375,343.5069844961166L761.74301783125,344.01987271904943L763.1777176249999,343.90970888137815L764.6124174187499,343.99408730268476L766.0471172124999,343.7033693730831L767.4818170062499,344.0144122779369L768.9165168,343.50450145602224L770.3512165937499,344.10721730589864L771.7859163874999,343.9748746395111L773.2206161812499,344.10648699998853L774.6553159749999,344.2419980704784L776.0900157687499,343.56510561108587L777.5247155624999,343.66413509249685L778.9594153562499,343.858329051733L780.39411515,343.8945297539234L781.8288149437499,344.0636798381805L783.2635147374999,343.1644485533237L784.69821453125,343.9156187415123L786.1329143249999,343.991222256422L787.5676141187499,344.0393662691116L789.0023139125,344.1499458193779L790.4370137062499,344.13701378703115L791.8717134999999,343.9308652818203L793.30641329375,343.94872968792913L794.7411130874999,343.90293388962743L796.17581288125,343.6657080590725L797.610512675,344.1744391560554L799.0452124687499,343.72025629281995L800.4799122625,344.20603331327436L801.91461205625,343.62622659802435L803.3493118499999,343.71873950362203L804.78401164375,344.04992761611936L806.2187114374999,344.1155427932739L807.65341123125,344.06117432713506L809.088111025,344.0689829826355L810.5228108187499,343.8379366636276L811.9575106125,344.216280066967L813.39221040625,343.96266167759893L814.8269101999999,344.06315177083013L816.26160999375,343.97290843129156L817.6963097875,343.86760955452917L819.1310095812499,343.84945302605627L820.565709375,343.9637739896774L822.00040916875,344.05747785568235L823.4351089625,343.8700027108192L824.86980875625,344.1441932559013L826.30450855,343.7975900709629L827.73920834375,344.17193364501L829.1739081375,343.585430586338L830.6086079312499,344.0777241826057L832.0433077249999,344.31348940134046L833.4780075187499,344.2203473091125L834.9127073125,344.0671403646469L836.3474071062499,343.57318391799924L837.7821068999999,344.18543868660925L839.2168066937498,343.63931592702863L840.6515064874999,344.1016669809818L842.0862062812499,344.3200396835804L843.5209060749999,344.0522645950317L844.9556058687499,344.2537728488445L846.3903056624999,344.3358479976654L847.8250054562499,344.2205383121967L849.2597052499999,344.1483840882778L850.69440504375,343.6163955569267L852.1291048374999,344.17257406711576L853.5638046312499,344.1256771922111L854.998504425,343.86844097971914L856.4332042187499,344.1323623001575L857.8679040124999,343.9004620850086L859.30260380625,344.30564703941343L860.7373035999999,343.99184020757673L862.17200339375,344.00471606254575L863.6067031875,343.2620736002922L865.0414029812499,344.3454206228256L866.476102775,343.9543474256992L867.91080256875,344.0440065205097L869.3455023624999,343.6723706960678L870.78020215625,344.47205566763876L872.2149019499999,343.72375052571294L873.6496017437499,343.9162703990936L875.0843015375,344.03322046399114L876.5190013312499,343.71762719154356L877.953701125,344.0716457903385L879.38840091875,343.78541081547735L880.8231007124999,344.3024224579334L882.25780050625,344.03381594419477L883.6925003,343.9529991686344L885.1272000937499,344.16529347896574L886.5618998875,343.8577448070049L887.99659968125,344.05020850300787L889.431299475,344.15363105535505L890.86599926875,343.9580438971519L892.3006990625,343.96260550022123L893.73539885625,344.1063634097576L895.17009865,344.06410678625105L896.60479844375,343.6240244448185L898.0394982374999,344.27963691353796L899.4741980312499,344.0443772912025L900.9088978249999,344.11234068274496L902.3435976187499,344.34608351588247L903.7782974124999,343.85174506306646L905.2129972062498,344.45748325586317L906.6476969999999,344.07507261037824L908.0823967937499,344.4398885011673L909.5170965874999,344.3574201107025L910.9517963812499,343.91650634407995L912.3864961749999,343.9540440678596L913.8211959687499,344.3342300891876L915.2558957624999,344.06866838932035L916.69059555625,344.1073970735073L918.1252953499999,343.9568866431713L919.5599951437499,343.763355576992L920.9946949375,344.14759760499L922.4293947312499,344.01149105429647L923.8640945249999,344.3000742435455L925.29879431875,344.32770227789877L926.7334941124999,343.96577390432356L928.1681939062499,344.1171157598495L929.6028937,343.75065948963163L931.0375934937499,344.1716302871704L932.4722932875,344.2307513594627L933.90699308125,344.0466580927372L935.3416928749999,343.95939215421674L936.77639266875,343.8809685349464L938.2110924624999,344.2048423528671L939.6457922562499,344.2525931239128L941.08049205,344.2076399862766L942.5151918437499,344.3096468687057" style="fill: none;" fill="none"></path></g><g><path stroke="rgb(255, 112, 67)" stroke-width="2px" d="M110.38931146875,-25.74637982845308L111.8240112625,12.35936465263365L113.25871105625,31.77992906570433L114.69341084999999,45.49808516502379L116.12811064374999,55.52462353706358L117.56281043749999,62.254179024696334L118.99751023124999,67.11033132076261L120.432210025,71.12431731224058L121.86690981874999,75.59089072942731L123.30160961249999,77.90623011589048L124.73630940624999,81.36408253908155L126.17100919999999,81.92223849296568L127.60570899375,85.04689165353773L129.04040878749998,88.63042410612104L130.47510858125,91.12355365753172L131.90980837499998,93.72220679521558L133.34450816875,95.8531720280647L134.77920796249998,98.24985625743864L136.21390775625,99.57564237117765L137.64860755,101.14442934989927L139.08330734375,103.7768113851547L140.5180071375,104.69039037227628L141.95270693125,105.04736390113828L143.38740672499998,108.64921017885206L144.82210651875,110.30974605083463L146.25680631249998,111.85862376689909L147.69150610625,116.41824939250944L149.12620589999997,119.42398627996442L150.56090569375,123.10499771833418L151.9956054875,126.64864423274992L153.43030528124999,128.97791560888288L154.865005075,133.08589758872984L156.29970486874998,136.24567284584043L157.7344046625,138.3998955130577L159.16910445625,141.82968171834943L160.60380424999997,146.37128564119337L162.03850404374998,152.70386930704115L163.4732038375,160.73168399333952L164.90790363124998,165.10702534914014L166.342603425,166.94440760612486L167.77730321874998,167.80228110551832L169.2120030125,169.04950877428053L170.64670280625,168.87601056098936L172.0814026,168.463825905323L173.51610239375,169.4475142598152L174.9508021875,170.18970730304716L176.38550198124997,170.50737913846967L177.820201775,170.6029256224632L179.25490156874997,170.83709540367124L180.68960136249999,170.83069118261335L182.12430115624997,171.60719736814497L183.55900094999998,171.03740146160123L184.99370074375,171.82842388153074L186.42840053749998,172.15085955858228L187.86310033125,171.77721258401868L189.29780012499998,171.72074308395383L190.73249991875,172.14200600385664L192.1671997125,173.00493546724317L193.60189950624996,172.5215178966522L195.03659929999998,172.2535068631172L196.47129909375,172.51942809820173L197.90599888749998,172.03284212350843L199.34069868125,171.80372830629346L200.77539847499997,172.23184486627576L202.21009826875,171.72393395900724L203.6447980625,172.4664865374565L205.07949785625,172.42669048309324L206.51419765,173.0299231648445L207.94889744374998,171.60836585760114L209.3835972375,172.67892690896986L210.81829703124998,172.311639213562L212.25299682499997,172.73834010362623L213.68769661874998,173.21897127628324L215.12239641249997,171.03439035415647L216.55709620624998,171.79076256752012L217.991796,171.6174441218376L219.42649579374998,172.86446955204008L220.8611955875,172.9302195549011L222.29589538124998,172.91177090406416L223.730595175,170.9318104624748L225.16529496875,173.11987438201902L226.5999947625,172.54192152023313L228.03469455624997,171.92397036552427L229.46939435,173.74333091974256L230.90409414374997,172.24373199939726L232.3387939375,172.96513941287992L233.77349373124997,172.62904139757154L235.20819352499998,172.8724242687225L236.64289331875,172.46614947319028L238.07759311249998,173.079022192955L239.51229290625,173.08041539192197L240.94699269999998,173.59439345598219L242.38169249375,173.1038975358009L243.8163922875,173.39332338571546L245.25109208124996,172.26851745843885L246.68579187499998,173.21276929378507L248.12049166874996,172.6324120402336L249.55519146249998,173.06625869274137L250.98989125625,172.67038794755933L252.42459104999998,172.14220824241636L253.85929084375,172.0996932029724L255.29399063749997,172.429701590538L256.72869043125,173.18697264194486L258.163390225,172.4681718587875L259.59809001875,172.71418383121488L261.03278981249997,172.8652560353279L262.46748960625,171.58553537130354L263.9021894,173.28885593414304L265.33688919375,173.23281338214872L266.7715889875,173.23440881967542L268.20628878125,172.24119278192518L269.640988575,172.22445192337034L271.07568836875,172.75530567169187L272.51038816249996,171.63613995313642L273.94508795624995,173.91008784770963L275.37978774999993,173.67250248193739L276.81448754375,173.4573431253433L278.24918733749996,172.19326224327085L279.68388713124995,172.73863222599027L281.118586925,172.6821851968765L282.55328671875,172.4413415431976L283.98798651249996,172.78991093635557L285.42268630625,172.99127312898634L286.8573861,172.65987154245374L288.29208589374997,172.42972406148908L289.7267856875,172.85858216285703L291.16148548125,173.1244584560394L292.596185275,173.21780278682706L294.03088506874997,173.32815762758253L295.4655848625,172.34264912605283L296.90028465625,172.29361751079557L298.33498445,173.04969760179517L299.76968424375,173.67742362022398L301.2043840375,173.13870503902433L302.63908383125,172.7702488541603L304.073783625,173.14439018964765L305.50848341874996,172.1849929332733L306.94318321249995,172.80514624118803L308.37788300624993,172.9851610302925L309.8125828,173.17872580289838L311.24728259374996,172.7283180594444L312.68198238749994,171.63852187395094L314.11668218125,172.5643475294113L315.55138197499997,172.57549312114713L316.98608176874995,172.53810145854948L318.4207815625,173.0131148934364L319.85548135625,173.02560874223707L321.29018114999997,172.79692187309263L322.72488094375,173.37058278322218L324.1595807375,173.30047341585157L325.59428053125,173.26110430955885L327.02898032499996,172.62962564229963L328.46368011875,172.95345451831815L329.8983799125,173.5903936266899L331.33307970625,172.75294622182844L332.7677795,172.73865469694135L334.20247929375,173.0198561787605L335.6371790875,173.38213285207746L337.07187888125003,171.8685570001602L338.50657867499996,172.70984693765638L339.94127846874994,173.1245708107948L341.3759782624999,172.9281522274017L342.81067805624997,172.5641228199005L344.24537784999995,173.40635653734205L345.68007764374994,173.20384832620618" style="fill: none;" fill="none"></path></g><g><path stroke="rgb(0, 153, 136)" stroke-width="2px" d="M121.86690981874999,-3.534833407402055L123.30160961249999,6.330408477783187L124.73630940624999,12.682047510147077L126.17100919999999,19.1473895549774L127.60570899375,25.520061397552475L129.04040878749998,30.135235214233383L130.47510858125,33.73000314235686L131.90980837499998,36.201627993583664L133.34450816875,38.68880274295805L134.77920796249998,39.97108509540556L136.21390775625,41.38127210140227L137.64860755,41.50697460174559L139.08330734375,43.11054661273955L140.5180071375,45.32645204067229L141.95270693125,45.81065609455107L143.38740672499998,44.91096415519713L144.82210651875,46.1838087081909L146.25680631249998,46.66531624794005L147.69150610625,48.405601525306686L149.12620589999997,47.19005789756773L150.56090569375,47.778617048263534L151.9956054875,48.86684026718138L153.43030528124999,48.56824626922606L154.865005075,48.36043491363524L156.29970486874998,49.22525193691252L157.7344046625,49.50416138172148L159.16910445625,50.556565904617294L160.60380424999997,49.48110618591307L162.03850404374998,49.82572069168089L163.4732038375,48.81713452339171L164.90790363124998,49.43575980663298L166.342603425,50.0853950023651L167.77730321874998,51.14984395503996L169.2120030125,50.91039350032805L170.64670280625,49.87776341438292L172.0814026,51.07995929718016L173.51610239375,50.175863051414474L174.9508021875,50.74222090244292L176.38550198124997,51.0729483604431L177.820201775,50.7761520385742L179.25490156874997,50.3562598466873L180.68960136249999,50.447806501388534L182.12430115624997,51.10998048782347L183.55900094999998,51.67660799026488L184.99370074375,50.676650667190536L186.42840053749998,51.531355762481674L187.86310033125,50.30241944789885L189.29780012499998,51.48915531635283L190.73249991875,51.205122494697555L192.1671997125,51.26606371402739L193.60189950624996,50.719705009460434L195.03659929999998,51.994527006149276L196.47129909375,50.85183420181273L197.90599888749998,51.769862437248214L199.34069868125,51.94536056518553L200.77539847499997,51.153439307212814L202.21009826875,51.08975663185118L203.6447980625,52.25981905460356L205.07949785625,52.308895611762985L206.51419765,52.50637032985686L207.94889744374998,52.44812562465666L209.3835972375,52.61517467498778L210.81829703124998,50.78428652286528L212.25299682499997,52.315906548500045L213.68769661874998,52.981001758575424L215.12239641249997,53.33496417999266L216.55709620624998,52.68591322898863L217.991796,52.88927533626555L219.42649579374998,51.52187302112578L220.8611955875,52.543177747726425L222.29589538124998,51.67211380004881L223.730595175,51.6990789413452L225.16529496875,52.23276402950285L226.5999947625,51.89367737770079L228.03469455624997,51.82833185195921L229.46939435,52.98374321460722L230.90409414374997,51.935248637199386L232.3387939375,52.73274269104002L233.77349373124997,52.239100837707504L235.20819352499998,52.30494072437285L236.64289331875,53.141399407386764L238.07759311249998,51.943607831001266L239.51229290625,52.87412991523741L240.94699269999998,52.674273276329025L242.38169249375,53.09856977462767L243.8163922875,52.44372131824492L245.25109208124996,53.552213335037216L246.68579187499998,52.47675361633299L248.12049166874996,52.88599457740782L249.55519146249998,54.057674908637985L250.98989125625,54.759083175659164L252.42459104999998,53.88779451847075L253.85929084375,54.445343756675705L255.29399063749997,52.65463366508482L256.72869043125,53.92289414405821L258.163390225,52.11142089366911L259.59809001875,52.746135377883896L261.03278981249997,53.83296539783476L262.46748960625,53.47140779495238L263.9021894,52.98122646808623L265.33688919375,53.7461376428604L266.7715889875,53.28692128658293L268.20628878125,54.395952606201156L269.640988575,53.48718240261076L271.07568836875,52.40286912918089L272.51038816249996,54.167243266105636L273.94508795624995,54.40044679641722L275.37978774999993,52.99596741199492L276.81448754375,52.645780110359176L278.24918733749996,53.58821179866789L279.68388713124995,53.84945907592772L281.118586925,53.40444436073302L282.55328671875,54.031114244461044L283.98798651249996,53.48484542369841L285.42268630625,53.45212771892546L286.8573861,53.70195975303648L288.29208589374997,54.294114255905136L289.7267856875,52.071063065528854L291.16148548125,54.200724983215316L292.596185275,52.4928428173065L294.03088506874997,54.648346328735336L295.4655848625,54.36139228343962L296.90028465625,52.74096705913542L298.33498445,53.607941293716415L299.76968424375,53.836560750007614L301.2043840375,53.71926238536833L302.63908383125,53.46390249729155L304.073783625,53.14539923667906L305.50848341874996,54.09228017330168L306.94318321249995,53.195194864273056L308.37788300624993,53.444847130775436L309.8125828,54.050079727172836L311.24728259374996,53.9165123939514L312.68198238749994,53.86370565891264L314.11668218125,54.03088953495024L315.55138197499997,52.057805204391464L316.98608176874995,53.68560090065001L318.4207815625,54.25186886787413L319.85548135625,53.76182236671446L321.29018114999997,53.72353186607359L322.72488094375,53.94455614089964" style="fill: none;" fill="none"></path></g></g></g></g></g></g><g transform="translate(41, 377)" clip-path="url(#clip_1)"><clipPath id="clip_1"><rect width="1032" height="22"></rect></clipPath><g><g><line x1="0" y1="0" x2="0" y2="5" style="visibility: inherit;" fill="rgb(0, 0, 0)" stroke="rgb(204, 204, 204)" stroke-width="1px"></line><line x1="103.2158125" y1="0" x2="103.2158125" y2="5" style="visibility: inherit;" fill="rgb(0, 0, 0)" stroke="rgb(204, 204, 204)" stroke-width="1px"></line><line x1="206.431625" y1="0" x2="206.431625" y2="5" style="visibility: inherit;" fill="rgb(0, 0, 0)" stroke="rgb(204, 204, 204)" stroke-width="1px"></line><line x1="309.64743749999997" y1="0" x2="309.64743749999997" y2="5" style="visibility: inherit;" fill="rgb(0, 0, 0)" stroke="rgb(204, 204, 204)" stroke-width="1px"></line><line x1="412.86325" y1="0" x2="412.86325" y2="5" style="visibility: inherit;" fill="rgb(0, 0, 0)" stroke="rgb(204, 204, 204)" stroke-width="1px"></line><line x1="516.0790625" y1="0" x2="516.0790625" y2="5" style="visibility: inherit;" fill="rgb(0, 0, 0)" stroke="rgb(204, 204, 204)" stroke-width="1px"></line><line x1="619.2948749999999" y1="0" x2="619.2948749999999" y2="5" style="visibility: inherit;" fill="rgb(0, 0, 0)" stroke="rgb(204, 204, 204)" stroke-width="1px"></line><line x1="722.5106874999999" y1="0" x2="722.5106874999999" y2="5" style="visibility: inherit;" fill="rgb(0, 0, 0)" stroke="rgb(204, 204, 204)" stroke-width="1px"></line><line x1="825.7265" y1="0" x2="825.7265" y2="5" style="visibility: inherit;" fill="rgb(0, 0, 0)" stroke="rgb(204, 204, 204)" stroke-width="1px"></line><line x1="928.9423125" y1="0" x2="928.9423125" y2="5" style="visibility: inherit;" fill="rgb(0, 0, 0)" stroke="rgb(204, 204, 204)" stroke-width="1px"></line><line x1="1032.158125" y1="0" x2="1032.158125" y2="5" style="visibility: inherit;" fill="rgb(0, 0, 0)" stroke="rgb(204, 204, 204)" stroke-width="1px"></line></g><g transform="translate(0, 8)"><text x="0" y="0" dx="0em" dy="0.95em" style="text-anchor: middle; visibility: hidden; font-family: Roboto, sans-serif; font-size: 12px; font-weight: 200;" fill="rgb(33, 33, 33)" stroke="none" stroke-width="1px">-20k</text><text x="103.2158125" y="0" dx="0em" dy="0.95em" style="text-anchor: middle; visibility: inherit; font-family: Roboto, sans-serif; font-size: 12px; font-weight: 200;" fill="rgb(33, 33, 33)" stroke="none" stroke-width="1px">0</text><text x="206.431625" y="0" dx="0em" dy="0.95em" style="text-anchor: middle; visibility: inherit; font-family: Roboto, sans-serif; font-size: 12px; font-weight: 200;" fill="rgb(33, 33, 33)" stroke="none" stroke-width="1px">20k</text><text x="309.64743749999997" y="0" dx="0em" dy="0.95em" style="text-anchor: middle; visibility: inherit; font-family: Roboto, sans-serif; font-size: 12px; font-weight: 200;" fill="rgb(33, 33, 33)" stroke="none" stroke-width="1px">40k</text><text x="412.86325" y="0" dx="0em" dy="0.95em" style="text-anchor: middle; visibility: inherit; font-family: Roboto, sans-serif; font-size: 12px; font-weight: 200;" fill="rgb(33, 33, 33)" stroke="none" stroke-width="1px">60k</text><text x="516.0790625" y="0" dx="0em" dy="0.95em" style="text-anchor: middle; visibility: inherit; font-family: Roboto, sans-serif; font-size: 12px; font-weight: 200;" fill="rgb(33, 33, 33)" stroke="none" stroke-width="1px">80k</text><text x="619.2948749999999" y="0" dx="0em" dy="0.95em" style="text-anchor: middle; visibility: inherit; font-family: Roboto, sans-serif; font-size: 12px; font-weight: 200;" fill="rgb(33, 33, 33)" stroke="none" stroke-width="1px">100k</text><text x="722.5106874999999" y="0" dx="0em" dy="0.95em" style="text-anchor: middle; visibility: inherit; font-family: Roboto, sans-serif; font-size: 12px; font-weight: 200;" fill="rgb(33, 33, 33)" stroke="none" stroke-width="1px">120k</text><text x="825.7265" y="0" dx="0em" dy="0.95em" style="text-anchor: middle; visibility: inherit; font-family: Roboto, sans-serif; font-size: 12px; font-weight: 200;" fill="rgb(33, 33, 33)" stroke="none" stroke-width="1px">140k</text><text x="928.9423125" y="0" dx="0em" dy="0.95em" style="text-anchor: middle; visibility: inherit; font-family: Roboto, sans-serif; font-size: 12px; font-weight: 200;" fill="rgb(33, 33, 33)" stroke="none" stroke-width="1px">160k</text><text x="1032.158125" y="0" dx="0em" dy="0.95em" style="text-anchor: middle; visibility: hidden; font-family: Roboto, sans-serif; font-size: 12px; font-weight: 200;" fill="rgb(33, 33, 33)" stroke="none" stroke-width="1px">180k</text></g><line x1="0" y1="0" x2="1032.158125" y2="0" fill="rgb(0, 0, 0)" stroke="rgb(204, 204, 204)" stroke-width="1px"></line></g></g></g></g></svg>