<svg viewBox="0 0 1073.3333740234375 400.0000305175781" xmlns="http://www.w3.org/2000/svg"><g><g><g><g><g><line x1="51.5625" y1="377" x2="46.5625" y2="377" style="visibility: inherit;" fill="rgb(0, 0, 0)" stroke="rgb(204, 204, 204)" stroke-width="1px"></line><line x1="51.5625" y1="345.5833333333333" x2="46.5625" y2="345.5833333333333" style="visibility: inherit;" fill="rgb(0, 0, 0)" stroke="rgb(204, 204, 204)" stroke-width="1px"></line><line x1="51.5625" y1="314.1666666666666" x2="46.5625" y2="314.1666666666666" style="visibility: inherit;" fill="rgb(0, 0, 0)" stroke="rgb(204, 204, 204)" stroke-width="1px"></line><line x1="51.5625" y1="282.74999999999994" x2="46.5625" y2="282.74999999999994" style="visibility: inherit;" fill="rgb(0, 0, 0)" stroke="rgb(204, 204, 204)" stroke-width="1px"></line><line x1="51.5625" y1="251.3333333333332" x2="46.5625" y2="251.3333333333332" style="visibility: inherit;" fill="rgb(0, 0, 0)" stroke="rgb(204, 204, 204)" stroke-width="1px"></line><line x1="51.5625" y1="219.91666666666688" x2="46.5625" y2="219.91666666666688" style="visibility: inherit;" fill="rgb(0, 0, 0)" stroke="rgb(204, 204, 204)" stroke-width="1px"></line><line x1="51.5625" y1="188.50000000000017" x2="46.5625" y2="188.50000000000017" style="visibility: inherit;" fill="rgb(0, 0, 0)" stroke="rgb(204, 204, 204)" stroke-width="1px"></line><line x1="51.5625" y1="157.08333333333348" x2="46.5625" y2="157.08333333333348" style="visibility: inherit;" fill="rgb(0, 0, 0)" stroke="rgb(204, 204, 204)" stroke-width="1px"></line><line x1="51.5625" y1="125.66666666666677" x2="46.5625" y2="125.66666666666677" style="visibility: inherit;" fill="rgb(0, 0, 0)" stroke="rgb(204, 204, 204)" stroke-width="1px"></line><line x1="51.5625" y1="94.25000000000009" x2="46.5625" y2="94.25000000000009" style="visibility: inherit;" fill="rgb(0, 0, 0)" stroke="rgb(204, 204, 204)" stroke-width="1px"></line><line x1="51.5625" y1="62.8333333333334" x2="46.5625" y2="62.8333333333334" style="visibility: inherit;" fill="rgb(0, 0, 0)" stroke="rgb(204, 204, 204)" stroke-width="1px"></line><line x1="51.5625" y1="31.416666666666682" x2="46.5625" y2="31.416666666666682" style="visibility: inherit;" fill="rgb(0, 0, 0)" stroke="rgb(204, 204, 204)" stroke-width="1px"></line><line x1="51.5625" y1="0" x2="46.5625" y2="0" style="visibility: inherit;" fill="rgb(0, 0, 0)" stroke="rgb(204, 204, 204)" stroke-width="1px"></line></g><g transform="translate(41.5625, 0)"><text x="0" y="377" dx="0em" dy="0.3em" style="text-anchor: end; visibility: hidden; font-family: Roboto, sans-serif; font-size: 12px; font-weight: 200;" fill="rgb(33, 33, 33)" stroke="none" stroke-width="1px">0.64</text><text x="0" y="345.5833333333333" dx="0em" dy="0.3em" style="text-anchor: end; visibility: inherit; font-family: Roboto, sans-serif; font-size: 12px; font-weight: 200;" fill="rgb(33, 33, 33)" stroke="none" stroke-width="1px">0.65</text><text x="0" y="314.1666666666666" dx="0em" dy="0.3em" style="text-anchor: end; visibility: inherit; font-family: Roboto, sans-serif; font-size: 12px; font-weight: 200;" fill="rgb(33, 33, 33)" stroke="none" stroke-width="1px">0.66</text><text x="0" y="282.74999999999994" dx="0em" dy="0.3em" style="text-anchor: end; visibility: inherit; font-family: Roboto, sans-serif; font-size: 12px; font-weight: 200;" fill="rgb(33, 33, 33)" stroke="none" stroke-width="1px">0.67</text><text x="0" y="251.3333333333332" dx="0em" dy="0.3em" style="text-anchor: end; visibility: inherit; font-family: Roboto, sans-serif; font-size: 12px; font-weight: 200;" fill="rgb(33, 33, 33)" stroke="none" stroke-width="1px">0.68</text><text x="0" y="219.91666666666688" dx="0em" dy="0.3em" style="text-anchor: end; visibility: inherit; font-family: Roboto, sans-serif; font-size: 12px; font-weight: 200;" fill="rgb(33, 33, 33)" stroke="none" stroke-width="1px">0.69</text><text x="0" y="188.50000000000017" dx="0em" dy="0.3em" style="text-anchor: end; visibility: inherit; font-family: Roboto, sans-serif; font-size: 12px; font-weight: 200;" fill="rgb(33, 33, 33)" stroke="none" stroke-width="1px">0.7</text><text x="0" y="157.08333333333348" dx="0em" dy="0.3em" style="text-anchor: end; visibility: inherit; font-family: Roboto, sans-serif; font-size: 12px; font-weight: 200;" fill="rgb(33, 33, 33)" stroke="none" stroke-width="1px">0.71</text><text x="0" y="125.66666666666677" dx="0em" dy="0.3em" style="text-anchor: end; visibility: inherit; font-family: Roboto, sans-serif; font-size: 12px; font-weight: 200;" fill="rgb(33, 33, 33)" stroke="none" stroke-width="1px">0.72</text><text x="0" y="94.25000000000009" dx="0em" dy="0.3em" style="text-anchor: end; visibility: inherit; font-family: Roboto, sans-serif; font-size: 12px; font-weight: 200;" fill="rgb(33, 33, 33)" stroke="none" stroke-width="1px">0.73</text><text x="0" y="62.8333333333334" dx="0em" dy="0.3em" style="text-anchor: end; visibility: inherit; font-family: Roboto, sans-serif; font-size: 12px; font-weight: 200;" fill="rgb(33, 33, 33)" stroke="none" stroke-width="1px">0.74</text><text x="0" y="31.416666666666682" dx="0em" dy="0.3em" style="text-anchor: end; visibility: inherit; font-family: Roboto, sans-serif; font-size: 12px; font-weight: 200;" fill="rgb(33, 33, 33)" stroke="none" stroke-width="1px">0.75</text><text x="0" y="0" dx="0em" dy="0.3em" style="text-anchor: end; visibility: hidden; font-family: Roboto, sans-serif; font-size: 12px; font-weight: 200;" fill="rgb(33, 33, 33)" stroke="none" stroke-width="1px">0.76</text></g><line x1="51.5625" y1="0" x2="51.5625" y2="377" fill="rgb(0, 0, 0)" stroke="rgb(204, 204, 204)" stroke-width="1px"></line></g></g><g transform="translate(51, 0)" clip-path="url(#clip_0)"><clipPath id="clip_0"><rect width="1021" height="376"></rect></clipPath><g><g><g><line x1="0" y1="0" x2="0" y2="377" fill="rgb(0, 0, 0)" stroke="rgb(66, 66, 66)" stroke-width="1px" opacity="0.25"></line><line x1="127.72093749999999" y1="0" x2="127.72093749999999" y2="377" fill="rgb(0, 0, 0)" stroke="rgb(66, 66, 66)" stroke-width="1px" opacity="0.25"></line><line x1="255.44187499999998" y1="0" x2="255.44187499999998" y2="377" fill="rgb(0, 0, 0)" stroke="rgb(66, 66, 66)" stroke-width="1px" opacity="0.25"></line><line x1="383.1628125" y1="0" x2="383.1628125" y2="377" fill="rgb(0, 0, 0)" stroke="rgb(66, 66, 66)" stroke-width="1px" opacity="0.25"></line><line x1="510.88374999999996" y1="0" x2="510.88374999999996" y2="377" fill="rgb(0, 0, 0)" stroke="rgb(66, 66, 66)" stroke-width="1px" opacity="0.25"></line><line x1="638.6046875" y1="0" x2="638.6046875" y2="377" fill="rgb(0, 0, 0)" stroke="rgb(66, 66, 66)" stroke-width="1px" opacity="0.25"></line><line x1="766.325625" y1="0" x2="766.325625" y2="377" fill="rgb(0, 0, 0)" stroke="rgb(66, 66, 66)" stroke-width="1px" opacity="0.25"></line><line x1="894.0465624999999" y1="0" x2="894.0465624999999" y2="377" fill="rgb(0, 0, 0)" stroke="rgb(66, 66, 66)" stroke-width="1px" opacity="0.25"></line><line x1="1021.7674999999999" y1="0" x2="1021.7674999999999" y2="377" fill="rgb(0, 0, 0)" stroke="rgb(66, 66, 66)" stroke-width="1px" opacity="0.25"></line></g><g><line x1="0" y1="377" x2="1021.7674999999999" y2="377" fill="rgb(0, 0, 0)" stroke="rgb(66, 66, 66)" stroke-width="1px" opacity="0.25"></line><line x1="0" y1="345.5833333333333" x2="1021.7674999999999" y2="345.5833333333333" fill="rgb(0, 0, 0)" stroke="rgb(66, 66, 66)" stroke-width="1px" opacity="0.25"></line><line x1="0" y1="314.1666666666666" x2="1021.7674999999999" y2="314.1666666666666" fill="rgb(0, 0, 0)" stroke="rgb(66, 66, 66)" stroke-width="1px" opacity="0.25"></line><line x1="0" y1="282.74999999999994" x2="1021.7674999999999" y2="282.74999999999994" fill="rgb(0, 0, 0)" stroke="rgb(66, 66, 66)" stroke-width="1px" opacity="0.25"></line><line x1="0" y1="251.3333333333332" x2="1021.7674999999999" y2="251.3333333333332" fill="rgb(0, 0, 0)" stroke="rgb(66, 66, 66)" stroke-width="1px" opacity="0.25"></line><line x1="0" y1="219.91666666666688" x2="1021.7674999999999" y2="219.91666666666688" fill="rgb(0, 0, 0)" stroke="rgb(66, 66, 66)" stroke-width="1px" opacity="0.25"></line><line x1="0" y1="188.50000000000017" x2="1021.7674999999999" y2="188.50000000000017" fill="rgb(0, 0, 0)" stroke="rgb(66, 66, 66)" stroke-width="1px" opacity="0.25"></line><line x1="0" y1="157.08333333333348" x2="1021.7674999999999" y2="157.08333333333348" fill="rgb(0, 0, 0)" stroke="rgb(66, 66, 66)" stroke-width="1px" opacity="0.25"></line><line x1="0" y1="125.66666666666677" x2="1021.7674999999999" y2="125.66666666666677" fill="rgb(0, 0, 0)" stroke="rgb(66, 66, 66)" stroke-width="1px" opacity="0.25"></line><line x1="0" y1="94.25000000000009" x2="1021.7674999999999" y2="94.25000000000009" fill="rgb(0, 0, 0)" stroke="rgb(66, 66, 66)" stroke-width="1px" opacity="0.25"></line><line x1="0" y1="62.8333333333334" x2="1021.7674999999999" y2="62.8333333333334" fill="rgb(0, 0, 0)" stroke="rgb(66, 66, 66)" stroke-width="1px" opacity="0.25"></line><line x1="0" y1="31.416666666666682" x2="1021.7674999999999" y2="31.416666666666682" fill="rgb(0, 0, 0)" stroke="rgb(66, 66, 66)" stroke-width="1px" opacity="0.25"></line><line x1="0" y1="0" x2="1021.7674999999999" y2="0" fill="rgb(0, 0, 0)" stroke="rgb(66, 66, 66)" stroke-width="1px" opacity="0.25"></line></g></g></g><g><g><line x1="0" y1="2387.666666666667" x2="1021.7674999999999" y2="2387.666666666667" fill="rgb(0, 0, 0)" stroke="rgb(153, 153, 153)" stroke-width="1.5px"></line></g></g><g><g><line x1="127.72093749999999" y1="0" x2="127.72093749999999" y2="377" fill="rgb(0, 0, 0)" stroke="rgb(153, 153, 153)" stroke-width="1.5px"></line></g></g><g><g><g><g><g><path stroke="rgb(238, 51, 119)" stroke-width="2px" d="M166.7780001875,-19.25139560302093L170.32864224999997,9.823018968105359L173.87928431249998,37.52764181296032L177.42992637499998,67.73702667156857L180.98056843749998,85.62783614794415L184.5312105,108.24222679932915L188.08185256249996,130.65924759705865L191.632494625,155.4306622942289L195.1831366875,175.28711821635568L198.73377875,186.43851494789126L202.2844208125,201.65097431341812L205.83506287499998,213.53155340751016L209.38570493749998,223.77606000502908L212.93634699999998,226.35291632016504L216.4869890625,239.77781152725223L220.037631125,252.92032178243005L223.58827318749996,253.72028764088952L227.13891524999997,263.8222909569741L230.6895573125,269.3096972107888L234.240199375,276.1444242397945L237.79084143749998,279.38361183802294L241.34148349999998,281.0524544715882L244.89212556249998,282.1497859160106L248.442767625,276.8889617522558L251.9934096875,287.4199729760488L255.54405174999997,294.9505504568418L259.0946938125,298.3809283971787L262.645335875,301.8588698506356L266.1959779375,298.44534512360894L269.74662,304.00971438487375L273.2972620625,300.93100682894396L276.847904125,303.8893075386684L280.39854618749996,301.7620575030645L283.94918824999996,305.8137572407723L287.49983031249997,307.44159038861596L291.05047237499997,305.28025941054034L294.6011144375,311.7110710938772L298.1517565,308.6207535465559L301.7023985625,311.38748939832055L305.253040625,314.0559148391088L308.8036826875,310.0955969691277L312.35432475,316.8042994141579L315.90496681249994,314.369571864605L319.45560887499994,320.60713336865115L323.00625093749994,315.65734461943316L326.55689299999995,317.29454066356027L330.1075350625,315.0671076377233L333.658177125,304.38703910509753L337.2088191875,319.46504727999377L340.75946125,320.9947572747867L344.3101033125,321.5842452247938L347.86074537499996,321.1739631096523L351.41138743749997,323.7643019954364L354.96202949999997,321.89640418688464L358.5126715625,325.6983018517495L362.063313625,325.966455201308L365.6139556875,313.6034996906917L369.16459775,322.3297190268835L372.7152398125,326.5688639481863L376.265881875,320.30770794550585L379.8165239375,329.02269180615747L383.36716599999994,315.8659499486288L386.91780806249994,330.85538512468344L390.46845012499995,323.3223732908567L394.01909218749995,327.71956390142446L397.56973424999995,334.6505415042242L401.12037631249996,323.202715476354L404.67101837499996,329.64345182975137L408.22166043749996,331.7939218481382L411.7723025,329.0747495094936L415.32294456249997,335.3671775857608L418.873586625,332.10551903645205L422.4242286875,333.10734893878305L425.97487075,329.61498862504965L429.5255128125,335.9873758355777L433.076154875,337.1081145207088L436.6267969375,336.0416806340218L440.177439,325.3161084254583L443.7280810625,324.6247521638871L447.27872312499994,333.24985222021746L450.82936518749995,336.7088806231817L454.38000724999995,325.41011190414434L457.93064931249995,336.5573889613152L461.48129137499996,336.1218270262083L465.03193343749996,338.6417569319408L468.58257549999996,332.5261003375054L472.13321756249996,332.60662124554324L475.68385962499997,339.8072502613068L479.23450168749997,338.9539158940316L482.7851437499999,341.31542559464776L486.3357858124999,342.3900988300642L489.8864278749999,339.90556067228323L493.4370699375,333.19255129496264L496.987712,338.34532763560617L500.5383540625,336.2976622184118L504.088996125,336.42143970727926L507.6396381875,338.68726060787844L511.19028024999994,339.8553755482038L514.7409223125,334.49062323570257L518.2915643749999,341.7449952761333L521.8422064375,342.61836624145513L525.3928484999999,346.5161399642627L528.9434905625,332.93376084168756L532.494132625,343.304292023182L536.0447746875,345.5105649034183L539.59541675,344.4287758668264L543.1460588125,344.6171573400498L546.696700875,347.55748128890997L550.2473429375,346.38505941629415L553.797985,346.06297578414285L557.3486270625,343.8147571285566L560.899269125,344.45237036546075L564.4499111875,340.48662201563525L568.0005532499999,348.442649503549L571.5511953124999,340.64110980431246L575.101837375,345.57573066155123L578.6524794374999,347.1335293451946L582.2031215,337.3047353426616L585.7537635624999,345.38135693470645L589.304405625,343.8295505046845L592.8550476874999,344.73924950758624L596.40568975,342.7003852128983L599.9563318124999,333.70114382108056L603.506973875,342.05546891689306L607.0576159374999,338.65973369280505L610.608258,345.02537961800897L614.1589000625,348.8495609760285L617.709542125,345.57741598288226L621.2601841875,341.7888136307399L624.81082625,347.6145949562391L628.3614683125,336.02426564693457L631.912110375,344.5840126872063L635.4627524375,345.3223706881206L639.0133944999999,343.83217211564386L642.5640365625,344.4405731161436L646.1146786249999,341.0826639930408L649.6653206875,344.7021724383037L653.2159627499999,347.06948713461566L656.7666048125,344.3664189775785L660.3172468749999,346.4028489192327L663.8678889375,348.92858382066095L667.4185309999999,340.4540391365688L670.9691730625,345.8225366075834L674.5198151249999,349.4847398598989L678.0704571875,342.32512032985693L681.6210992499999,343.584055364132L685.1717413125,341.48732837041223L688.7223833749999,350.18676982323336L692.2730254375,342.9631080826124L695.8236675,337.77288015683496L699.3743095624999,346.00342776378L702.924951625,346.5633289615314L706.4755936874999,343.54810184240347L710.02623575,346.34105380376184L713.5768778124999,346.35884330670046L717.127519875,340.8631977041563L720.6781619374999,339.9637978871664L724.228804,346.11147558689123L727.7794460624999,347.6074791550637L731.330088125,336.91336627801263L734.8807301874999,344.66341004769015L738.43137225,347.7986694971721L741.9820143124999,344.6596648891767L745.532656375,345.2856681346894L749.0832984374999,346.85994551579165L752.6339405,346.55434058109927L756.1845825624999,347.92469408114755L759.735224625,342.9859535495441L763.2858666875,344.2051899035772L766.8365087499999,349.22857101758325L770.3871508124998,347.23071620861697L773.9377928749999,350.07441506783175L777.4884349375,342.09104792277026L781.0390769999999,351.0301795204481L784.5897190625,346.98559558391577L788.1403611249999,347.0567535956701L791.6910031875,345.4798546036085L795.2416452499999,348.17730502287554L798.7922873125,350.79966501394915L802.3429293749999,346.68523387114215L805.8935714375,340.17876998583483L809.4442134999999,349.6779900391897L812.9948555625,343.12845683097845L816.5454976249999,346.34367541472125L820.0961396875,341.94311416149145L823.64678175,348.6475096742313L827.1974238125,348.8793349862099L830.748065875,344.99616738160455L834.2987079374999,341.8584735790889L837.8493499999998,347.73125664393115L841.3999920624999,348.5712956984838L844.9506341249999,348.98569748799014L848.5012761874999,350.952654739221L852.0519182499999,345.7676700353623L855.6025603124999,348.2831057508787L859.153202375,344.8987932602565L862.7038444374999,344.43720247348153L866.2544865,343.4323764443398L869.8051285624999,349.6096408963204L873.355770625,346.255476931731L876.9064126874999,335.50125426054007L880.45705475,345.2525234818459L884.0076968125,347.36647820472723L887.558338875,344.5701556007068L891.1089809375,346.51145851612097L894.659623,349.2516037424406L898.2102650625,346.1655931274097L901.7609071249999,346.5614563822747L905.3115491874998,344.18365524212527L908.8621912499999,341.24108419815707L912.4128333124999,348.65237838029867L915.9634753749999,347.9638309876125L919.5141174374999,349.6504631241163L923.0647594999999,350.70191637674975L926.6154015624999,350.9955368041993L930.1660436249999,346.5768115321796L933.7166856874999,346.3249496221543L937.2673277499999,348.21325854460406L940.8179698125,344.9107777674993L944.3686118749999,350.36560114224756L947.9192539375,349.7839780251186L951.469896,350.1680440306664L955.0205380625,348.376360197862L958.571180125,340.46527461210894" style="fill: none;" fill="none"></path></g><g><path stroke="rgb(51, 187, 238)" stroke-width="2px" d="M170.32864224999997,-6.1319180727005005L173.87928431249998,22.116314530372662L177.42992637499998,49.452601035436025L180.98056843749998,75.93574043114982L184.5312105,99.94707520802818L188.08185256249996,121.88995893796287L191.632494625,141.7349921266238L195.1831366875,160.43269600470865L198.73377875,177.02992773056033L202.2844208125,191.20909786224368L205.83506287499998,202.98818316062295L209.38570493749998,214.54274620612466L212.93634699999998,224.80841294924423L216.4869890625,234.3040751020114L220.037631125,241.7814713319143L223.58827318749996,249.1128063797951L227.13891524999997,255.8241304357847L230.6895573125,261.39261937141424L234.240199375,266.9450041254362L237.79084143749998,271.53750475247705L241.34148349999998,275.832639793555L244.89212556249998,279.3386699358623L248.442767625,282.3364820679029L251.9934096875,285.2798021435738L255.54405174999997,287.97893788417184L259.0946938125,290.6327572067579L262.645335875,292.40702605247503L266.1959779375,294.4352166453998L269.74662,296.43044984340673L273.2972620625,297.65137151877093L276.847904125,299.005995353063L280.39854618749996,299.9685010910035L283.94918824999996,301.41244695583987L287.49983031249997,302.78167690833413L291.05047237499997,303.81721323728567L294.6011144375,305.1235245267551L298.1517565,305.42800591389346L301.7023985625,307.2919713060062L305.253040625,308.1486763159435L308.8036826875,309.1754115223885L312.35432475,310.20364479223895L315.90496681249994,310.7933200001717L319.45560887499994,312.0191103816033L323.00625093749994,312.7022272944451L326.55689299999995,313.8930004437765L330.1075350625,314.4087087710699L333.658177125,314.93715063730883L337.2088191875,316.5779045820237L340.75946125,317.2567145625751L344.3101033125,317.97091629107797L347.86074537499996,318.2029288609823L351.41138743749997,319.3395844697953L354.96202949999997,320.4962766766549L358.5126715625,320.71312135458L362.063313625,321.4338771104813L365.6139556875,321.9123211105665L369.16459775,322.9680812954903L372.7152398125,323.2392307718595L376.265881875,323.69070963064837L379.8165239375,323.6489511132241L383.36716599999994,325.32004084189737L386.91780806249994,325.4885729749998L390.46845012499995,326.38535118103033L394.01909218749995,326.32411783933645L397.56973424999995,327.1433712641399L401.12037631249996,327.34130289157235L404.67101837499996,328.27703074614215L408.22166043749996,328.6371277372043L411.7723025,329.2541426022848L415.32294456249997,329.382601539294L418.873586625,329.9252750078838L422.4242286875,329.5054427385331L425.97487075,330.1473629077276L429.5255128125,330.68179702758795L433.076154875,331.4428132375082L436.6267969375,331.35255491733557L440.177439,331.17746875683474L443.7280810625,331.95927059650427L447.27872312499994,332.77871127923333L450.82936518749995,333.0281388362249L454.38000724999995,334.2288366556168L457.93064931249995,334.50185871124273L461.48129137499996,334.48032404979074L465.03193343749996,334.9688799778621L468.58257549999996,335.0020246307056L472.13321756249996,335.9201502402624L475.68385962499997,336.0283853212993L479.23450168749997,336.3534650802613L482.7851437499999,336.6062632799149L486.3357858124999,336.99257638057077L489.8864278749999,337.23544991016394L493.4370699375,337.28975470860803L496.987712,337.33862902720773L500.5383540625,338.21274902423227L504.088996125,338.6900694767635L507.6396381875,338.9966107010842L511.19028024999994,338.933879295985L514.7409223125,339.4857284029325L518.2915643749999,339.85855893294024L521.8422064375,340.0857027967771L525.3928484999999,340.4171493252119L528.9434905625,340.3944911162059L532.494132625,340.8665683468183L536.0447746875,340.2224010825158L539.59541675,340.3583503365517L543.1460588125,341.09446124235797L546.696700875,341.10045349597937L550.2473429375,341.6193452080091L553.797985,341.4526856541634L557.3486270625,342.05247279008233L560.899269125,342.49402697881067L564.4499111875,342.33017629385L568.0005532499999,342.398150920868L571.5511953124999,342.351710955302L575.101837375,342.3253075877826L578.6524794374999,342.1485361059507L582.2031215,343.14193940162664L585.7537635624999,342.6294144590696L589.304405625,343.118532160918L592.8550476874999,342.7745393514634L596.40568975,342.98876241842913L599.9563318124999,343.2644060850144L603.506973875,343.02995916207635L607.0576159374999,343.3604694008828L610.608258,343.31852362553286L614.1589000625,343.1104800701142L617.709542125,343.0550517241161L621.2601841875,343.18425969282794L624.81082625,344.0516384045284L628.3614683125,343.4325637022655L631.912110375,343.8306740522385L635.4627524375,344.073360323906L639.0133944999999,343.88928578297305L642.5640365625,343.63255516688037L646.1146786249999,343.6872344811758L649.6653206875,344.26623598734545L653.2159627499999,344.22447746992117L656.7666048125,344.57053011655813L660.3172468749999,344.0881537000339L663.8678889375,343.92879720528924L667.4185309999999,344.6031129956246L670.9691730625,344.77407948176074L674.5198151249999,344.6665934324265L678.0704571875,344.6514255404473L681.6210992499999,344.932499686877L685.1717413125,345.2643207311631L688.7223833749999,344.58494897683465L692.2730254375,344.1499488155048L695.8236675,344.8798802097639L699.3743095624999,345.56168631712603L702.924951625,345.24316058556246L706.4755936874999,344.6450587709745L710.02623575,345.2935329675675L713.5768778124999,345.4678700963657L717.127519875,345.39221789439523L720.6781619374999,345.12949502468115L724.228804,345.13642356793093L727.7794460624999,344.8242646058401L731.330088125,345.46992993354803L734.8807301874999,344.4173531333606L738.43137225,344.959090312322L741.9820143124999,345.8912602663041L745.532656375,345.58097388346994L749.0832984374999,345.7948224345844L752.6339405,345.351021150748L756.1845825624999,345.5380918184917L759.735224625,345.1676956415177L763.2858666875,345.8998741308849L766.8365087499999,345.93283152580267L770.3871508124998,345.23323591550195L773.9377928749999,345.3626311421395L777.4884349375,346.03750870625186L781.0390769999999,346.10529607534414L784.5897190625,345.5663677652677L788.1403611249999,345.41525061925256L791.6910031875,346.1775776346525L795.2416452499999,345.06170765558886L798.7922873125,346.0386322538059L802.3429293749999,346.1230855782827L805.8935714375,345.8214130600294L809.4442134999999,346.0601669152578L812.9948555625,346.0090455015501L816.5454976249999,345.73583618799853L820.0961396875,346.32925655444467L823.64678175,346.13151218493783L827.1974238125,346.46127339204156L830.748065875,345.6032575766246L834.2987079374999,346.55939654509234L837.8493499999998,345.8453820745151L841.3999920624999,345.96635069449746L844.9506341249999,346.048182408015L848.5012761874999,346.2888088425001L852.0519182499999,346.90563644965493L855.6025603124999,346.117280582587L859.153202375,346.4500379165014L862.7038444374999,346.49816320339846L866.2544865,346.4318738977115L869.8051285624999,346.2466758092245L873.355770625,346.654149055481L876.9064126874999,346.52569011847186L880.45705475,346.745905439059L884.0076968125,346.1672784487407L887.558338875,346.85994551579165L891.1089809375,346.3891790906589L894.659623,346.7445946335793L898.2102650625,346.7303630312284L901.7609071249999,346.94776948293054L905.3115491874998,346.83223134279257L908.8621912499999,347.0318482915561L912.4128333124999,347.1764114101728L915.9634753749999,346.94271351893747L919.5141174374999,347.4625415205956L923.0647594999999,347.2762198845546L926.6154015624999,347.2030020356179L930.1660436249999,347.093643407027L933.7166856874999,347.1436412731807L937.2673277499999,347.2041255831719L940.8179698125,346.6665080785752L944.3686118749999,347.2192934751511L947.9192539375,347.1919538180034L951.469896,347.0998229185741L955.0205380625,346.87960759798693L958.571180125,347.85653219620394" style="fill: none;" fill="none"></path></g></g></g></g></g></g><g transform="translate(51, 377)" clip-path="url(#clip_1)"><clipPath id="clip_1"><rect width="1021" height="22"></rect></clipPath><g><g><line x1="0" y1="0" x2="0" y2="5" style="visibility: inherit;" fill="rgb(0, 0, 0)" stroke="rgb(204, 204, 204)" stroke-width="1px"></line><line x1="127.72093749999999" y1="0" x2="127.72093749999999" y2="5" style="visibility: inherit;" fill="rgb(0, 0, 0)" stroke="rgb(204, 204, 204)" stroke-width="1px"></line><line x1="255.44187499999998" y1="0" x2="255.44187499999998" y2="5" style="visibility: inherit;" fill="rgb(0, 0, 0)" stroke="rgb(204, 204, 204)" stroke-width="1px"></line><line x1="383.1628125" y1="0" x2="383.1628125" y2="5" style="visibility: inherit;" fill="rgb(0, 0, 0)" stroke="rgb(204, 204, 204)" stroke-width="1px"></line><line x1="510.88374999999996" y1="0" x2="510.88374999999996" y2="5" style="visibility: inherit;" fill="rgb(0, 0, 0)" stroke="rgb(204, 204, 204)" stroke-width="1px"></line><line x1="638.6046875" y1="0" x2="638.6046875" y2="5" style="visibility: inherit;" fill="rgb(0, 0, 0)" stroke="rgb(204, 204, 204)" stroke-width="1px"></line><line x1="766.325625" y1="0" x2="766.325625" y2="5" style="visibility: inherit;" fill="rgb(0, 0, 0)" stroke="rgb(204, 204, 204)" stroke-width="1px"></line><line x1="894.0465624999999" y1="0" x2="894.0465624999999" y2="5" style="visibility: inherit;" fill="rgb(0, 0, 0)" stroke="rgb(204, 204, 204)" stroke-width="1px"></line><line x1="1021.7674999999999" y1="0" x2="1021.7674999999999" y2="5" style="visibility: inherit;" fill="rgb(0, 0, 0)" stroke="rgb(204, 204, 204)" stroke-width="1px"></line></g><g transform="translate(0, 8)"><text x="0" y="0" dx="0em" dy="0.95em" style="text-anchor: middle; visibility: hidden; font-family: Roboto, sans-serif; font-size: 12px; font-weight: 200;" fill="rgb(33, 33, 33)" stroke="none" stroke-width="1px">-10k</text><text x="127.72093749999999" y="0" dx="0em" dy="0.95em" style="text-anchor: middle; visibility: inherit; font-family: Roboto, sans-serif; font-size: 12px; font-weight: 200;" fill="rgb(33, 33, 33)" stroke="none" stroke-width="1px">0</text><text x="255.44187499999998" y="0" dx="0em" dy="0.95em" style="text-anchor: middle; visibility: inherit; font-family: Roboto, sans-serif; font-size: 12px; font-weight: 200;" fill="rgb(33, 33, 33)" stroke="none" stroke-width="1px">10k</text><text x="383.1628125" y="0" dx="0em" dy="0.95em" style="text-anchor: middle; visibility: inherit; font-family: Roboto, sans-serif; font-size: 12px; font-weight: 200;" fill="rgb(33, 33, 33)" stroke="none" stroke-width="1px">20k</text><text x="510.88374999999996" y="0" dx="0em" dy="0.95em" style="text-anchor: middle; visibility: inherit; font-family: Roboto, sans-serif; font-size: 12px; font-weight: 200;" fill="rgb(33, 33, 33)" stroke="none" stroke-width="1px">30k</text><text x="638.6046875" y="0" dx="0em" dy="0.95em" style="text-anchor: middle; visibility: inherit; font-family: Roboto, sans-serif; font-size: 12px; font-weight: 200;" fill="rgb(33, 33, 33)" stroke="none" stroke-width="1px">40k</text><text x="766.325625" y="0" dx="0em" dy="0.95em" style="text-anchor: middle; visibility: inherit; font-family: Roboto, sans-serif; font-size: 12px; font-weight: 200;" fill="rgb(33, 33, 33)" stroke="none" stroke-width="1px">50k</text><text x="894.0465624999999" y="0" dx="0em" dy="0.95em" style="text-anchor: middle; visibility: inherit; font-family: Roboto, sans-serif; font-size: 12px; font-weight: 200;" fill="rgb(33, 33, 33)" stroke="none" stroke-width="1px">60k</text><text x="1021.7674999999999" y="0" dx="0em" dy="0.95em" style="text-anchor: middle; visibility: hidden; font-family: Roboto, sans-serif; font-size: 12px; font-weight: 200;" fill="rgb(33, 33, 33)" stroke="none" stroke-width="1px">70k</text></g><line x1="0" y1="0" x2="1021.7674999999999" y2="0" fill="rgb(0, 0, 0)" stroke="rgb(204, 204, 204)" stroke-width="1px"></line></g></g></g></g></svg>