<svg viewBox="0 0 1073.3333740234375 400.0000305175781" xmlns="http://www.w3.org/2000/svg"><g><g><g><g><g><line x1="41.171875" y1="377" x2="36.171875" y2="377" style="visibility: inherit;" fill="rgb(0, 0, 0)" stroke="rgb(204, 204, 204)" stroke-width="1px"></line><line x1="41.171875" y1="335.11111111111114" x2="36.171875" y2="335.11111111111114" style="visibility: inherit;" fill="rgb(0, 0, 0)" stroke="rgb(204, 204, 204)" stroke-width="1px"></line><line x1="41.171875" y1="293.2222222222222" x2="36.171875" y2="293.2222222222222" style="visibility: inherit;" fill="rgb(0, 0, 0)" stroke="rgb(204, 204, 204)" stroke-width="1px"></line><line x1="41.171875" y1="251.33333333333331" x2="36.171875" y2="251.33333333333331" style="visibility: inherit;" fill="rgb(0, 0, 0)" stroke="rgb(204, 204, 204)" stroke-width="1px"></line><line x1="41.171875" y1="209.44444444444446" x2="36.171875" y2="209.44444444444446" style="visibility: inherit;" fill="rgb(0, 0, 0)" stroke="rgb(204, 204, 204)" stroke-width="1px"></line><line x1="41.171875" y1="167.55555555555551" x2="36.171875" y2="167.55555555555551" style="visibility: inherit;" fill="rgb(0, 0, 0)" stroke="rgb(204, 204, 204)" stroke-width="1px"></line><line x1="41.171875" y1="125.66666666666669" x2="36.171875" y2="125.66666666666669" style="visibility: inherit;" fill="rgb(0, 0, 0)" stroke="rgb(204, 204, 204)" stroke-width="1px"></line><line x1="41.171875" y1="83.77777777777777" x2="36.171875" y2="83.77777777777777" style="visibility: inherit;" fill="rgb(0, 0, 0)" stroke="rgb(204, 204, 204)" stroke-width="1px"></line><line x1="41.171875" y1="41.88888888888891" x2="36.171875" y2="41.88888888888891" style="visibility: inherit;" fill="rgb(0, 0, 0)" stroke="rgb(204, 204, 204)" stroke-width="1px"></line><line x1="41.171875" y1="0" x2="36.171875" y2="0" style="visibility: inherit;" fill="rgb(0, 0, 0)" stroke="rgb(204, 204, 204)" stroke-width="1px"></line></g><g transform="translate(31.171875, 0)"><text x="0" y="377" dx="0em" dy="0.3em" style="text-anchor: end; visibility: hidden; font-family: Roboto, sans-serif; font-size: 12px; font-weight: 200;" fill="rgb(33, 33, 33)" stroke="none" stroke-width="1px">0.6</text><text x="0" y="335.11111111111114" dx="0em" dy="0.3em" style="text-anchor: end; visibility: inherit; font-family: Roboto, sans-serif; font-size: 12px; font-weight: 200;" fill="rgb(33, 33, 33)" stroke="none" stroke-width="1px">0.7</text><text x="0" y="293.2222222222222" dx="0em" dy="0.3em" style="text-anchor: end; visibility: inherit; font-family: Roboto, sans-serif; font-size: 12px; font-weight: 200;" fill="rgb(33, 33, 33)" stroke="none" stroke-width="1px">0.8</text><text x="0" y="251.33333333333331" dx="0em" dy="0.3em" style="text-anchor: end; visibility: inherit; font-family: Roboto, sans-serif; font-size: 12px; font-weight: 200;" fill="rgb(33, 33, 33)" stroke="none" stroke-width="1px">0.9</text><text x="0" y="209.44444444444446" dx="0em" dy="0.3em" style="text-anchor: end; visibility: inherit; font-family: Roboto, sans-serif; font-size: 12px; font-weight: 200;" fill="rgb(33, 33, 33)" stroke="none" stroke-width="1px">1</text><text x="0" y="167.55555555555551" dx="0em" dy="0.3em" style="text-anchor: end; visibility: inherit; font-family: Roboto, sans-serif; font-size: 12px; font-weight: 200;" fill="rgb(33, 33, 33)" stroke="none" stroke-width="1px">1.1</text><text x="0" y="125.66666666666669" dx="0em" dy="0.3em" style="text-anchor: end; visibility: inherit; font-family: Roboto, sans-serif; font-size: 12px; font-weight: 200;" fill="rgb(33, 33, 33)" stroke="none" stroke-width="1px">1.2</text><text x="0" y="83.77777777777777" dx="0em" dy="0.3em" style="text-anchor: end; visibility: inherit; font-family: Roboto, sans-serif; font-size: 12px; font-weight: 200;" fill="rgb(33, 33, 33)" stroke="none" stroke-width="1px">1.3</text><text x="0" y="41.88888888888891" dx="0em" dy="0.3em" style="text-anchor: end; visibility: inherit; font-family: Roboto, sans-serif; font-size: 12px; font-weight: 200;" fill="rgb(33, 33, 33)" stroke="none" stroke-width="1px">1.4</text><text x="0" y="0" dx="0em" dy="0.3em" style="text-anchor: end; visibility: hidden; font-family: Roboto, sans-serif; font-size: 12px; font-weight: 200;" fill="rgb(33, 33, 33)" stroke="none" stroke-width="1px">1.5</text></g><line x1="41.171875" y1="0" x2="41.171875" y2="377" fill="rgb(0, 0, 0)" stroke="rgb(204, 204, 204)" stroke-width="1px"></line></g></g><g transform="translate(41, 0)" clip-path="url(#clip_0)"><clipPath id="clip_0"><rect width="1032" height="376"></rect></clipPath><g><g><g><line x1="0" y1="0" x2="0" y2="377" fill="rgb(0, 0, 0)" stroke="rgb(66, 66, 66)" stroke-width="1px" opacity="0.25"></line><line x1="79.39677884615385" y1="0" x2="79.39677884615385" y2="377" fill="rgb(0, 0, 0)" stroke="rgb(66, 66, 66)" stroke-width="1px" opacity="0.25"></line><line x1="158.7935576923077" y1="0" x2="158.7935576923077" y2="377" fill="rgb(0, 0, 0)" stroke="rgb(66, 66, 66)" stroke-width="1px" opacity="0.25"></line><line x1="238.19033653846154" y1="0" x2="238.19033653846154" y2="377" fill="rgb(0, 0, 0)" stroke="rgb(66, 66, 66)" stroke-width="1px" opacity="0.25"></line><line x1="317.5871153846154" y1="0" x2="317.5871153846154" y2="377" fill="rgb(0, 0, 0)" stroke="rgb(66, 66, 66)" stroke-width="1px" opacity="0.25"></line><line x1="396.98389423076924" y1="0" x2="396.98389423076924" y2="377" fill="rgb(0, 0, 0)" stroke="rgb(66, 66, 66)" stroke-width="1px" opacity="0.25"></line><line x1="476.3806730769231" y1="0" x2="476.3806730769231" y2="377" fill="rgb(0, 0, 0)" stroke="rgb(66, 66, 66)" stroke-width="1px" opacity="0.25"></line><line x1="555.7774519230769" y1="0" x2="555.7774519230769" y2="377" fill="rgb(0, 0, 0)" stroke="rgb(66, 66, 66)" stroke-width="1px" opacity="0.25"></line><line x1="635.1742307692308" y1="0" x2="635.1742307692308" y2="377" fill="rgb(0, 0, 0)" stroke="rgb(66, 66, 66)" stroke-width="1px" opacity="0.25"></line><line x1="714.5710096153846" y1="0" x2="714.5710096153846" y2="377" fill="rgb(0, 0, 0)" stroke="rgb(66, 66, 66)" stroke-width="1px" opacity="0.25"></line><line x1="793.9677884615385" y1="0" x2="793.9677884615385" y2="377" fill="rgb(0, 0, 0)" stroke="rgb(66, 66, 66)" stroke-width="1px" opacity="0.25"></line><line x1="873.3645673076923" y1="0" x2="873.3645673076923" y2="377" fill="rgb(0, 0, 0)" stroke="rgb(66, 66, 66)" stroke-width="1px" opacity="0.25"></line><line x1="952.7613461538461" y1="0" x2="952.7613461538461" y2="377" fill="rgb(0, 0, 0)" stroke="rgb(66, 66, 66)" stroke-width="1px" opacity="0.25"></line><line x1="1032.158125" y1="0" x2="1032.158125" y2="377" fill="rgb(0, 0, 0)" stroke="rgb(66, 66, 66)" stroke-width="1px" opacity="0.25"></line></g><g><line x1="0" y1="377" x2="1032.158125" y2="377" fill="rgb(0, 0, 0)" stroke="rgb(66, 66, 66)" stroke-width="1px" opacity="0.25"></line><line x1="0" y1="335.11111111111114" x2="1032.158125" y2="335.11111111111114" fill="rgb(0, 0, 0)" stroke="rgb(66, 66, 66)" stroke-width="1px" opacity="0.25"></line><line x1="0" y1="293.2222222222222" x2="1032.158125" y2="293.2222222222222" fill="rgb(0, 0, 0)" stroke="rgb(66, 66, 66)" stroke-width="1px" opacity="0.25"></line><line x1="0" y1="251.33333333333331" x2="1032.158125" y2="251.33333333333331" fill="rgb(0, 0, 0)" stroke="rgb(66, 66, 66)" stroke-width="1px" opacity="0.25"></line><line x1="0" y1="209.44444444444446" x2="1032.158125" y2="209.44444444444446" fill="rgb(0, 0, 0)" stroke="rgb(66, 66, 66)" stroke-width="1px" opacity="0.25"></line><line x1="0" y1="167.55555555555551" x2="1032.158125" y2="167.55555555555551" fill="rgb(0, 0, 0)" stroke="rgb(66, 66, 66)" stroke-width="1px" opacity="0.25"></line><line x1="0" y1="125.66666666666669" x2="1032.158125" y2="125.66666666666669" fill="rgb(0, 0, 0)" stroke="rgb(66, 66, 66)" stroke-width="1px" opacity="0.25"></line><line x1="0" y1="83.77777777777777" x2="1032.158125" y2="83.77777777777777" fill="rgb(0, 0, 0)" stroke="rgb(66, 66, 66)" stroke-width="1px" opacity="0.25"></line><line x1="0" y1="41.88888888888891" x2="1032.158125" y2="41.88888888888891" fill="rgb(0, 0, 0)" stroke="rgb(66, 66, 66)" stroke-width="1px" opacity="0.25"></line><line x1="0" y1="0" x2="1032.158125" y2="0" fill="rgb(0, 0, 0)" stroke="rgb(66, 66, 66)" stroke-width="1px" opacity="0.25"></line></g></g></g><g><g><line x1="0" y1="628.3333333333333" x2="1032.158125" y2="628.3333333333333" fill="rgb(0, 0, 0)" stroke="rgb(153, 153, 153)" stroke-width="1.5px"></line></g></g><g><g><line x1="79.39677884615385" y1="0" x2="79.39677884615385" y2="377" fill="rgb(0, 0, 0)" stroke="rgb(153, 153, 153)" stroke-width="1.5px"></line></g></g><g><g><g><g><g><path stroke="rgb(204, 51, 17)" stroke-width="2px" d="M81.60400929807692,-397.8318100505405L83.81123974999998,72.20241162512036L86.01847020192308,106.73227376408045L88.22570065384615,110.94492793083191L90.43293110576921,117.27289756139118L92.64016155769231,120.46861635314093L94.84739200961538,123.43088693088953L97.05462246153846,127.80658033159045L99.26185291346154,128.40860207875568L101.4690833653846,131.09727634323968L103.67631381730769,135.04841857486298L105.88354426923077,137.6334268516964L108.09077472115384,138.83801963594226L110.29800517307692,140.80582578976947L112.505235625,141.58671630753412L114.71246607692306,143.47557451989917L116.91969652884615,144.84545363320245L119.12692698076923,146.19675676027936L121.3341574326923,148.72973230150012L123.54138788461538,149.33105495240954L125.74861833653846,151.1770685513814L127.95584878846154,152.59313795301648L130.1630792403846,152.7287126912011L132.37030969230767,154.18707741631403L134.57754014423074,154.22727545102435L136.78477059615383,154.69876594013635L138.99200104807693,156.71351141399805L141.1992315,158.19065186712476L143.40646195192306,159.01204003228082L145.61369240384613,158.34320465723675L147.8209228557692,157.51682294739618L150.02815330769232,159.29157866372003L152.2353837596154,160.13309081395465L154.44261421153846,159.3673307365841L156.64984466346152,161.23281915982562L158.8570751153846,160.6687483522627L161.06430556730766,160.39125707414416L163.27153601923078,160.5900001525879L165.47876647115385,162.82481114069623L167.6859969230769,163.55976104736328L169.89322737499998,163.5030343797472L172.10045782692305,162.69308143191864L174.30768827884611,162.5315901968214L176.51491873076924,162.13280571831598L178.7221491826923,164.44491677814057L180.92937963461537,164.30180178748236L183.13661008653844,163.96813313166302L185.3438405384615,164.02530921830072L187.5510709903846,163.59221908781262L189.7583014423077,164.41455602645874L191.96553189423076,164.64211185773212L194.17276234615383,164.2286463578542L196.3799927980769,164.49699944920008L198.58722324999997,164.78352904319763L200.79445370192306,166.03316360049774L203.00168415384616,165.67247986793518L205.20891460576922,165.60286985503302L207.4161450576923,164.18280561765033L209.62337550961536,165.69999429914685L211.83060596153845,166.53371651967365L214.03783641346152,165.30830065409344L216.24506686538462,166.5202838844723L218.45229731730768,167.47280253304376L220.65952776923075,166.6443734698825L222.86675822115382,166.77750137117175L225.0739886730769,166.0919376214345L227.28121912499998,166.8531036376953L229.48844957692307,167.27196216583252L231.69568002884614,167.17478778627185L233.9029104807692,166.46350728140936L236.11014093269227,167.2928851180606L238.31737138461537,167.51999153031244L240.52460183653844,167.25293676058453L242.73183228846153,166.72177341249255L244.9390627403846,165.92145800590515L247.14629319230767,167.35760145717194L249.35352364423076,167.82100240389508L251.56075409615383,166.85824698872034L253.7679845480769,167.3307361867693L255.975215,167.13988290892706L258.18244545192306,167.9008991188473L260.3896759038461,168.0166494846344L262.5969063557692,167.74734761979846L264.80413680769226,168.05574893951416L267.0113672596153,168.47550630569458L269.21859771153845,170.22199855910407L271.4258281634615,167.43425236807929L273.6330586153846,168.48234746191235L275.8402890673077,170.18210013707477L278.0475195192308,167.90803988774616L280.25474997115384,168.89676173528034L282.4619804230769,169.21280317836334L284.669210875,167.6844788922204L286.87644132692304,169.04112511210968L289.0836717788461,168.8266024324629L291.2909022307692,168.9765086438921L293.4981326826923,168.74890287717182L295.70536313461537,169.13230723804895L297.91259358653843,169.49603703286914L300.1198240384615,168.94894427723352L302.3270544903846,168.58022093772888L304.5342849423077,169.62991396586102L306.74151539423076,169.67440644900006L308.9487458461538,169.33754192458258L311.1559762980769,169.09954958491852L313.36320674999996,170.18894129329254L315.570437201923,170.16402350531683L317.77766765384615,168.91408933533563L319.9848981057692,169.78890842861597L322.1921285576923,170.6865480211046L324.39935900961535,168.09315058920117L326.6065894615384,169.60384766260785L328.81381991346154,169.86745688650342L331.0210503653846,170.39911958906384L333.2282808173077,169.69153430726794L335.43551126923074,169.5203056600359L337.6427417211538,168.82879959212408L339.8499721730769,169.556059439977L342.05720262499995,170.12577295303345L344.26443307692307,169.748910135693L346.47166352884614,168.42547098795575L348.6788939807692,169.4676736990611L350.88612443269227,169.222590525945L353.09335488461534,170.9635399447547L355.30058533653846,170.70372581481934L357.5078157884615,171.05027781592474L359.7150462403846,169.80868286556665L361.92227669230766,170.87335652775232L364.12950714423073,171.11264718903436L366.3367375961538,171.2794315814972L368.5439680480769,170.05990809864466L370.7511985,170.55776450369092L372.95842895192305,171.64965298440723L375.1656594038461,171.0252601570553L377.3728898557692,169.8452855481042L379.58012030769225,170.3251152568393L381.7873507596154,171.21456543604535L383.99458121153845,171.4453171359168L386.2018116634615,171.6862556669447L388.4090421153846,171.39268517494202L390.61627256730765,171.53235461976794L392.82350301923077,170.1613269911872L395.03073347115384,171.83900819884406L397.2379639230769,169.93187361293366L399.44519437499997,171.228547361162L401.65242482692304,170.4279323418935L403.8596552788461,171.40996283955042L406.0668857307692,171.6848075389862L408.2741161826923,171.43493056297302L410.48134663461536,171.89898067050507L412.68857708653843,172.7734002802107L414.8958075384615,172.31489300727844L417.1030379903846,171.82837194866602L419.3102684423077,171.69219798511926L421.51749889423076,170.640307797326L423.7247293461538,171.95166256692676L425.9319597980769,172.01028678152295L428.13919024999996,172.88330819871692L430.346420701923,171.98207325405542L432.5536511538461,172.3352167341444L434.7608816057692,172.65824913978577L436.9681120576923,172.0612708727519L439.17534250961535,171.56531201468573L441.3825729615384,171.79311752319336L443.58980341346154,170.84174738989935L445.7970338653846,172.7046391699049L448.0042643173077,172.80276232295563L450.21149476923074,171.2119687928094L452.4187252211538,171.81833492385016L454.6259556730769,172.31059855884973L456.83318612499994,172.640122572581L459.040416576923,172.94937279489307L461.24764702884613,173.02212874094647L463.4548774807692,172.2783402601878L465.66210793269227,171.75596555074054L467.8693383846154,171.51367876264783L470.07656883653846,171.97588125864667L472.2837992884615,173.49007381333246L474.4910297403846,172.9220081700219L476.69826019230766,173.823043372896L478.9054906442307,171.12048705418903L481.1127210961538,172.56621811125012L483.31995154807686,172.40053229861786L485.5271819999999,172.2306019730038L487.73441245192305,173.41741773817273L489.9416429038461,172.31329507297937L492.14887335576924,171.93508399857416L494.3561038076923,171.71691603130762L496.5633342596154,172.77300079663593L498.77056471153844,172.6063662105136L500.9777951634615,173.4851302040948L503.1850256153846,172.52257453070746L505.39225606730764,173.2143802113003L507.5994865192307,171.43233391973706L509.8067169711538,173.3385197321574L512.0139474230768,173.4207134776645L514.221177875,173.47978711128235L516.428408326923,171.2841255135006L518.6356387788461,172.68251776695251L520.8428692307691,172.86023802227442L523.0500996826922,172.21826791763306L525.2573301346152,173.72871531380548L527.4645605865384,172.9254537158542L529.6717910384616,172.8019134203593L531.8790214903846,173.50355638398065L534.0862519423077,173.45417022705078L536.2934823942308,173.30915768941242L538.5007128461539,173.54605144924585L540.7079432980769,173.58560032314722L542.91517375,174.15935860739813L545.122404201923,172.68096976810028L547.3296346538461,173.4622597694397L549.5368651057692,173.66544710265265L551.7440955576923,173.57481426662866L553.9513260096154,174.3810220559438L556.1585564615384,173.10272455215454L558.3657869134615,172.4628018008338L560.5730173653845,173.8630916012658L562.7802478173077,172.424351506763L564.9874782692307,173.72347209188672L567.1947087211538,174.00271111064484L569.4019391730768,174.21948088539972L571.6091696249999,173.50775096151563L573.816400076923,172.68746137619019L576.0236305288461,174.43874743249683L578.2308609807692,174.00805420345728L580.4380914326923,173.23510342174103L582.6453218846154,173.3512532711029L584.8525523365385,175.1536232895321L587.0597827884616,174.2728119426303L589.2670132403846,174.3968515925937L591.4742436923077,173.87697365548877L593.6814741442307,174.4117323557536L595.8887045961538,174.1296969519721L598.0959350480769,173.38446034325494L600.3031655,173.60023140907288L602.510395951923,174.4982205496894L604.7176264038461,172.84291042221918L606.9248568557692,172.26870271894666L609.1320873076922,173.72417118814258L611.3393177596154,174.18902026282416L613.5465482115384,173.48997394243878L615.7537786634615,172.9369388686286L617.9610091153845,174.27495916684467L620.1682395673076,173.90613595644635L622.3754700192306,172.27339665095013L624.5827004711538,174.11711321936713L626.7899309230768,174.4191727373335L628.997161375,173.97484713130524L631.204391826923,174.20005599657696L633.4116222788462,173.72606873512268L635.6188527307693,174.71653832329645L637.8260831826923,174.55085251066419L640.0333136346154,174.35031175613403L642.2405440865384,174.1909677452511L644.4477745384615,174.31385887993707L646.6550049903846,173.70649403995935L648.8622354423077,174.92466926574707L651.0694658942307,173.058082262675L653.2766963461538,173.96211359235974L655.4839267980768,173.47374492221405L657.69115725,174.14512700504724L659.8983877019231,174.6062808566623L662.1056181538461,175.2002629968855L664.3128486057692,174.28699360953436L666.5200790576922,174.18247871928742L668.7273095096153,174.4565743870205L670.9345399615383,173.97859228981866L673.1417704134615,174.30881539980572L675.3490008653845,174.677338997523L677.5562313173077,174.35310814115735L679.7634617692307,174.15061990420025L681.9706922211539,174.75114358796014L684.1779226730769,174.8119150267707L686.385153125,175.3931136926015L688.5923835769231,174.9837928348117L690.7996140288461,174.5215404033661L693.0068444807692,174.67419306437176L695.2140749326923,175.01939680841235L697.4213053846154,174.65327011214362L699.6285358365384,174.1986078686184L701.8357662884615,174.12685063150195L704.0429967403845,173.4619601567586L706.2502271923076,174.68158351050482L708.4574576442307,174.20839521620007L710.6646880961538,174.15196816126507L712.8719185480768,174.0333714750078L715.0791489999999,175.1496284537845L717.286379451923,174.7263256708781L719.493609903846,172.94407963752747L721.7008403557692,174.50815770361157L723.9080708076922,173.78983630074396L726.1153012596153,175.1573185125987L728.3225317115384,174.34871382183496L730.5297621634616,174.56957830323114L732.7369926153846,174.35590452618067L734.9442230673077,175.746406979031L737.1514535192307,174.2854456106822L739.3586839711538,174.7177367740207L741.565914423077,174.81396238009137L743.773144875,174.3555549780528L745.9803753269231,175.1408897505866L748.1876057788461,173.36313790745203L750.3948362307692,174.98903605673047L752.6020666826922,174.93205971188013L754.8092971346153,175.7188426123725L757.0165275865384,175.32749851544696L759.2237580384615,174.73701185650293L761.4309884903845,174.74884655740527L763.6382189423076,176.17555220921832L765.8454493942306,173.67638296551172L768.0526798461538,175.27866164843243L770.2599102980769,174.65052366256714L772.4671407499999,174.9550300174289L774.674371201923,174.9345564842224L776.8816016538461,175.59220631917316L779.0888321057693,175.64863337410821L781.2960625576923,174.54276296827527L783.5032930096154,175.18628107176886L785.7105234615384,175.2913452519311L787.9177539134615,174.68308157391016L790.1249843653845,175.2919444772932L792.3322148173077,176.17195685704547L794.5394452692308,176.4468514919281L796.7466757211538,174.9644178814358L798.9539061730769,175.74805484877692L801.1611366249999,174.79528652297125L803.368367076923,174.4888326856825L805.5755975288461,173.95307527648077L807.7828279807692,175.8093256420559L809.9900584326922,175.53687784406873L812.1972888846153,175.7385171784295L814.4045193365383,175.744809044732L816.6117497884615,174.49372635947333L818.8189802403845,175.83229594760468L821.0262106923076,175.22847652435303L823.2334411442307,174.5912003517151L825.4406715961537,173.84641316201953L827.647902048077,175.02024571100873L829.8551325,175.57702594333222L832.0623629519231,175.114324092865L834.2695934038461,175.8221091164483L836.4768238557692,174.84617074330646L838.6840543076922,174.57337339719135L840.8912847596154,175.2495492829217L843.0985152115384,176.59181409411957L845.3057456634615,175.27961042192248L847.5129761153846,176.36435813373987L849.7202065673076,175.66306471824646L851.9274370192308,176.19542651706269L854.1346674711538,175.6335029337141L856.3418979230769,175.7124009397295L858.5491283749999,174.75533816549512L860.756358826923,175.54641551441614L862.963589278846,175.412638452318L865.1708197307692,175.02803564071655L867.3780501826922,175.60788604948254L869.5852806346153,175.43286230829028L871.7925110865383,174.98608986536664L873.9997415384614,175.37778351042004L876.2069719903847,175.57917316754657L878.4142024423077,174.81086638238696L880.6214328942308,175.97511132558185L882.8286633461538,175.20605550871954L885.0358937980769,174.9141828219096L887.2431242499999,174.73146902190314L889.4503547019231,175.26532888412476L891.6575851538461,176.56110379430982L893.8648156057692,176.2960464424557L896.0720460576922,174.90109973483612L898.2792765096153,175.52329540252686L900.4865069615385,176.4981851312849L902.6937374134615,174.5875550640954L904.9009678653846,174.98299386766223L907.1081983173076,175.46147531933252L909.3154287692307,175.30897246466742L911.5226592211537,175.73841730753583L913.7298896730769,175.79344616995917L915.9371201249999,175.33413992987738L918.144350576923,175.9979318247901L920.351581028846,176.16341789563495L922.5588114807691,176.21445192231073L924.7660419326921,175.43231301837494L926.9732723846154,175.4649708006117L929.1805028365385,175.33104393217297L931.3877332884615,175.40365007188586L933.5949637403846,176.45469135708277L935.8021941923076,176.26398788558112L938.0094246442308,175.8780867523617L940.2166550961538,176.24556170569525L942.4238855480769,175.40210207303363L944.6311159999999,175.05789703792993L946.838346451923,175.70545991261798L949.045576903846,174.95677775806848L951.2528073557692,176.47301766607495L953.4600378076923,175.74266182051764" style="fill: none;" fill="none"></path></g><g><path stroke="rgb(238, 51, 119)" stroke-width="2px" d="M83.81123974999998,-210.01860221227005L86.01847020192308,136.41889691352844L88.22570065384615,247.20762676662866L90.43293110576921,274.7862749629551L92.64016155769231,282.93983459472656L94.84739200961538,289.7545000579622L97.05462246153846,293.4816568427616L99.26185291346154,299.4281196594238L101.4690833653846,303.0759290191862L103.67631381730769,307.4109250307083L105.88354426923077,311.28751364019183L108.09077472115384,314.9814633528391L110.29800517307692,319.0093813339869L112.505235625,321.39482259750366L114.71246607692306,324.410074684355L116.91969652884615,327.39901079071893L119.12692698076923,330.70186608367493L121.3341574326923,333.3493935399585L123.54138788461538,334.8362464374966L125.74861833653846,336.86457435290015L127.95584878846154,338.4486515654458L130.1630792403846,339.8145857784483L132.37030969230767,340.15816662046643L134.57754014423074,341.94815264807806L136.78477059615383,343.70048734876843L138.99200104807693,343.8071494632297L141.1992315,345.15408323870764L143.40646195192306,345.88573740588294L145.61369240384613,346.7970343430837L147.8209228557692,347.2289260228475L150.02815330769232,347.4514383739895L152.2353837596154,347.59774923324585L154.44261421153846,346.89630601141187L156.64984466346152,348.3004408412509L158.8570751153846,349.30451783869L161.06430556730766,349.76190156406824L163.27153601923078,350.22562709119586L165.47876647115385,349.7704904609256L167.6859969230769,350.5124063624276L169.89322737499998,350.10191202163696L172.10045782692305,350.49635211626685L174.30768827884611,350.21271877818634L176.51491873076924,350.75294540988074L178.7221491826923,350.9699898295932L180.92937963461537,350.6818123658498L183.13661008653844,351.53925392362805L185.3438405384615,351.12721158398523L187.5510709903846,351.49610969755383L189.7583014423077,351.8518997563256L191.96553189423076,351.32385737366144L194.17276234615383,352.21835103299884L196.3799927980769,351.8937206930584L198.58722324999997,352.7253955602646L200.79445370192306,352.0654237270355L203.00168415384616,352.28371653291913L205.20891460576922,351.98672546280756L207.4161450576923,350.5627163251241L209.62337550961536,352.57311741511023L211.83060596153845,352.77707874774933L214.03783641346152,352.8556771410836L216.24506686538462,352.8009728590647L218.45229731730768,353.14635137716925L220.65952776923075,352.89729833602905L222.86675822115382,353.4042180246777L225.0739886730769,353.43997180461884L227.28121912499998,351.7915777365366L229.48844957692307,352.9550736480289L231.69568002884614,353.52029297086926L233.9029104807692,352.68547217051184L236.11014093269227,353.84747001859876L238.31737138461537,352.0932377709283L240.52460183653844,354.09182912773554L242.73183228846153,353.08742754989197L244.9390627403846,353.673719631301L247.14629319230767,354.597849978341L249.35352364423076,353.07147317462494L251.56075409615383,353.93023802174463L253.7679845480769,354.21696735752954L255.975215,353.8544110457102L258.18244545192306,354.6934014558792L260.3896759038461,354.2585136493047L262.5969063557692,354.3920909696155L264.80413680769226,353.92644292778436L267.0113672596153,354.7760945558548L269.21859771153845,354.92552638053894L271.4258281634615,354.78333519564734L273.6330586153846,353.3532589011722L275.8402890673077,353.261078066296L278.0475195192308,354.4110914071401L280.25474997115384,354.87229519420197L282.4619804230769,353.3657926983303L284.669210875,354.8520963059531L286.87644132692304,354.7940213812722L289.0836717788461,355.1300120353699L291.2909022307692,354.3145911561118L293.4981326826923,354.32532727718353L295.70536313461537,355.285411145952L297.91259358653843,355.1716332303153L300.1198240384615,355.48650119039746L302.3270544903846,355.62979095511963L304.5342849423077,355.29851920074884L306.74151539423076,354.40345128377277L308.9487458461538,355.0904881291919L311.1559762980769,354.817466073566L313.36320674999996,354.83396973874835L315.570437201923,355.13607919216156L317.77766765384615,355.2918278508716L319.9848981057692,354.5765275425381L322.1921285576923,355.54377714792884L324.39935900961535,355.6602266099718L326.6065894615384,356.17992977301276L328.81381991346154,354.36894589000275L331.0210503653846,355.7516833808687L333.2282808173077,356.0458530982335L335.43551126923074,355.9016145600213L337.6427417211538,355.9267320897844L339.8499721730769,356.31877528296576L342.05720262499995,356.162452366617L344.26443307692307,356.11950788233014L346.47166352884614,355.81974539491864L348.6788939807692,355.90476049317255L350.88612443269227,355.3759940465291L353.09335488461534,356.4367977115843L355.30058533653846,355.3965924183527L357.5078157884615,356.05454186598456L359.7150462403846,356.262248357137L361.92227669230766,354.95174249013263L364.12950714423073,356.02862536907196L366.3367375961538,355.82171784506903L368.5439680480769,355.94301104545593L370.7511985,355.6711624728309L372.95842895192305,354.4712636205885L375.1656594038461,355.5851736333635L377.3728898557692,355.1324089368184L379.58012030769225,355.98116172684564L381.7873507596154,356.49105257458154L383.99458121153845,356.05476657549536L386.2018116634615,355.5496195952097L388.4090421153846,356.3263904386096L390.61627256730765,354.781013197369L392.82350301923077,355.9223128027386L395.03073347115384,356.02076053619385L397.2379639230769,355.82206739319696L399.44519437499997,355.9031875265969L401.65242482692304,355.45546631018317L403.8596552788461,355.93806743621826L406.0668857307692,356.2537093957265L408.2741161826923,355.8933003081216L410.48134663461536,356.1648243003421L412.68857708653843,356.5015889538659L414.8958075384615,355.37164966265357L417.1030379903846,356.08744932545557L419.3102684423077,356.57574309243097L421.51749889423076,355.62112715509204L423.7247293461538,355.78898515966205L425.9319597980769,355.5094215604994L428.13919024999996,356.6693470875422L430.346420701923,355.7061921887927L432.5536511538461,355.0141617986891L434.7608816057692,356.11156814628174L436.9681120576923,356.18622163931525L439.17534250961535,355.7841913567649L441.3825729615384,356.1565849516127L443.58980341346154,356.15895688533783L445.7970338653846,355.4262041383319L448.0042643173077,355.3062841627333L450.21149476923074,356.1259745226966L452.4187252211538,356.32544166511957L454.6259556730769,354.89955994817944L456.83318612499994,355.9328991174698L459.040416576923,356.350933710734L461.24764702884613,355.93239976300134L463.4548774807692,356.015866862403L465.66210793269227,356.2257705132166L467.8693383846154,356.185023188591L470.07656883653846,356.3677369885974L472.2837992884615,355.7092382510503L474.4910297403846,355.8718030982547L476.69826019230766,356.5415872467889L478.9054906442307,356.2752066055933L481.1127210961538,356.65436645348865L483.31995154807686,355.5899175008138L485.5271819999999,356.7818017138375L487.73441245192305,356.2425238556332L489.9416429038461,356.25201159053375L492.14887335576924,356.0417583915922L494.3561038076923,356.4014184474945L496.5633342596154,356.7510664463043L498.77056471153844,356.20247562726337L500.9777951634615,355.3349471092224L503.1850256153846,356.60150978300305L505.39225606730764,355.7282386885749L507.5994865192307,356.1569344997406L509.8067169711538,355.57019299930994L512.0139474230768,356.4641124010086L514.221177875,356.4950224426058L516.428408326923,355.9772667619917L518.6356387788461,355.55890758832294L520.8428692307691,356.3419453303019L523.0500996826922,356.4539505375756L525.2573301346152,356.50920410950977L527.4645605865384,356.7714650763406L529.6717910384616,356.08013378249274L531.8790214903846,356.41552521122827L534.0862519423077,355.96428354581195L536.2934823942308,355.9027381075753L538.5007128461539,355.76876130368976L540.7079432980769,356.5923965639538L542.91517375,356.14517470200855L545.122404201923,354.7112783458498L547.3296346538461,356.01144757535724L549.5368651057692,356.2933082050747L551.7440955576923,355.9204651912053L553.9513260096154,356.17930557992725L556.1585564615384,356.54465827676984L558.3657869134615,356.1331901947657L560.5730173653845,356.18597196208106L562.7802478173077,355.8689318100611L564.9874782692307,355.4765890041987L567.1947087211538,356.46476156181757L569.4019391730768,356.3729552427927L571.6091696249999,356.5978395276599L573.816400076923,356.73803329467773L576.0236305288461,356.77718268500433L578.2308609807692,356.1880193154017L580.4380914326923,356.1544377273983L582.6453218846154,356.4062122503916L584.8525523365385,355.965881480111L587.0597827884616,356.69319126341077L589.2670132403846,356.6156415144602L591.4742436923077,356.66685031519995L593.6814741442307,356.4279591374927L595.8887045961538,355.37314772605896" style="fill: none;" fill="none"></path></g><g><path stroke="rgb(187, 187, 187)" stroke-width="2px" d="M105.88354426923077,-4.436864323086191L108.09077472115384,3.2449551423390566L110.29800517307692,10.286202695634639L112.505235625,13.095021645228082L114.71246607692306,18.243216408623596L116.91969652884615,18.86361440022785L119.12692698076923,20.98861734072369L121.3341574326923,22.655562427308833L123.54138788461538,24.795845614539246L125.74861833653846,25.41494528452557L127.95584878846154,25.39691858821447L130.1630792403846,27.32797225316364L132.37030969230767,25.458588865068233L134.57754014423074,28.64656766255695L136.78477059615383,26.3349559572008L138.99200104807693,27.80670338206823L141.1992315,30.54226703113978L143.40646195192306,32.391925917731385L145.61369240384613,32.781522274017334L147.8209228557692,33.13506523768108L150.02815330769232,32.81597773234051L152.2353837596154,34.44996542400782L154.44261421153846,35.56132872899372L156.64984466346152,34.0623664855957L158.8570751153846,34.47553237279255L161.06430556730766,36.394801272286315L163.27153601923078,35.60921682251825L165.47876647115385,33.31583155526056L167.6859969230769,33.59132541550531L169.89322737499998,34.95566169420879L172.10045782692305,35.123944150076966L174.30768827884611,36.71833303239612L176.51491873076924,36.59519222047595L178.7221491826923,35.64606918228998L180.92937963461537,36.68008248011272L183.13661008653844,36.08994536929662L185.3438405384615,35.49496452013653L187.5510709903846,37.40824116600885L189.7583014423077,35.74324356185065L191.96553189423076,36.406086683273315L194.17276234615383,37.22372968991596L196.3799927980769,36.672991646660705L198.58722324999997,37.46716499328613L200.79445370192306,37.7550428443485L203.00168415384616,37.117916478051086L205.20891460576922,38.04182211558025L207.4161450576923,37.35790623558893L209.62337550961536,37.12011363771228L211.83060596153845,35.98553034994336L214.03783641346152,36.360046201282096L216.24506686538462,36.17453601625232L218.45229731730768,35.83078040017023L220.65952776923075,36.94948421584235L222.86675822115382,36.72023057937622L225.0739886730769,36.13009346856012L227.28121912499998,37.68748018476697L229.48844957692307,36.31475475099353L231.69568002884614,37.843728197945495L233.9029104807692,36.22152527173359L236.11014093269227,36.7870941427019L238.31737138461537,36.76811867290075L240.52460183653844,36.82464559872944L242.73183228846153,38.91818920771282L244.9390627403846,36.80681864420574L247.14629319230767,38.260888920889954L249.35352364423076,37.618019978205375L251.56075409615383,36.25278486145868L253.7679845480769,37.76597870720758L255.975215,37.46401906013489L258.18244545192306,37.43945082028706L260.3896759038461,36.776507827970704L262.5969063557692,38.613682852851014L264.80413680769226,37.23711238967047L267.0113672596153,38.586767647001466L269.21859771153845,37.74815175268384L271.4258281634615,36.7357105678982L273.6330586153846,37.31191568904455L275.8402890673077,35.665444135665894L278.0475195192308,37.23356697294446L280.25474997115384,37.10423416561549L282.4619804230769,38.10084581375122L284.669210875,38.56679346826343L286.87644132692304,37.030179897944144L289.0836717788461,37.10563235812719L291.2909022307692,37.36604571342468L293.4981326826923,38.85482112566631L295.70536313461537,36.817504829830575L297.91259358653843,37.23526477813721L300.1198240384615,37.09879120190937L302.3270544903846,36.64537734455531L304.5342849423077,37.27621184455023L306.74151539423076,36.99372702174718L308.9487458461538,37.05889277988012L311.1559762980769,39.0854729546441L313.36320674999996,37.1469289726681L315.570437201923,36.98738521999781L317.77766765384615,38.368250131607056L319.9848981057692,37.608781920539L322.1921285576923,39.35537404484217L324.39935900961535,38.17450059784784L326.6065894615384,38.2181441783905L328.81381991346154,36.49442248874242L331.0210503653846,38.70511465602453L333.2282808173077,38.26273653242322L335.43551126923074,39.695484373304566L337.6427417211538,38.15098100238378L339.8499721730769,37.064585420820436L342.05720262499995,38.01265981462268L344.26443307692307,37.357756429248404L346.47166352884614,38.140095074971505L348.6788939807692,38.34752692116632L350.88612443269227,37.282453775405884L353.09335488461534,37.411636776394296L355.30058533653846,38.146786424848756L357.5078157884615,37.42152399486964L359.7150462403846,37.114021513197144L361.92227669230766,37.76438077290852L364.12950714423073,38.50287609630163L366.3367375961538,37.93136490715875L368.5439680480769,38.281712002224374L370.7511985,38.33659105830724L372.95842895192305,37.67784264352588L375.1656594038461,36.942243576049805L377.3728898557692,37.2403581937154L379.58012030769225,39.24476703008015L381.7873507596154,39.45913990338642L383.99458121153845,38.5023268063863L386.2018116634615,36.86928788820904L388.4090421153846,39.89128126038446L390.61627256730765,38.39906030231054L392.82350301923077,37.68573244412739L395.03073347115384,38.32290874587164L397.2379639230769,37.714095777935434L399.44519437499997,37.45028681225245L401.65242482692304,38.015556070539674L403.8596552788461,38.76448790232342L406.0668857307692,38.56165011723835L408.2741161826923,38.350672854317565L410.48134663461536,39.40281271934509L412.68857708653843,36.66260507371692L414.8958075384615,37.76138464609783L417.1030379903846,39.25280663702222L419.3102684423077,39.11268777317469L421.51749889423076,37.412685420778075L423.7247293461538,38.6834426720937L425.9319597980769,39.434172179963866L428.13919024999996,36.63873593012493L430.346420701923,40.2624015013377L432.5536511538461,39.38054151005213L434.7608816057692,38.60109912024603L436.9681120576923,38.375690513187L439.17534250961535,39.75111246109009L441.3825729615384,40.02301096916199L443.58980341346154,39.214705891079355L445.7970338653846,39.72344822353785L448.0042643173077,38.749457332823L450.21149476923074,39.529798560672354L452.4187252211538,38.01695426305134L454.6259556730769,39.32606193754407L456.83318612499994,39.0571595562829L459.040416576923,38.18978084458246L461.24764702884613,39.01236746046277L463.4548774807692,38.06604080730016L465.66210793269227,38.50332551532323L467.8693383846154,39.17620566156177L470.07656883653846,38.80278839005365L472.2837992884615,38.59815292888219L474.4910297403846,40.53060478634303L476.69826019230766,40.552676253848624L478.9054906442307,38.49014255735608L481.1127210961538,39.17086256874933L483.31995154807686,39.34618592262268L485.5271819999999,39.12502182854547L487.73441245192305,36.94798615243701L489.9416429038461,40.96734020445081L492.14887335576924,39.56705040401881L494.3561038076923,38.84977764553492L496.5633342596154,36.610672208997926L498.77056471153844,38.35287001397876L500.9777951634615,37.90200286441381L503.1850256153846,39.890781905916015L505.39225606730764,39.27432881461249L507.5994865192307,38.542974260118285L509.8067169711538,38.037028312683105L512.0139474230768,40.76070732540553L514.221177875,40.462093353271484L516.428408326923,38.428222603268075L518.6356387788461,40.301301214430055L520.8428692307691,38.96233214272394L523.0500996826922,40.436776081721L525.2573301346152,40.4517067803277L527.4645605865384,41.43114063474866L529.6717910384616,39.6739621957143L531.8790214903846,40.44426639874775L534.0862519423077,38.584470616446595L536.2934823942308,40.33121254709033L538.5007128461539,40.708374977111816L540.7079432980769,37.20370557573108L542.91517375,38.712654908498116L545.122404201923,40.67571719487507L547.3296346538461,38.51740731133356L549.5368651057692,39.84828684065076L551.7440955576923,40.88274955749512L553.9513260096154,39.01361584663391L556.1585564615384,39.678905804951974L558.3657869134615,39.50977444648743L560.5730173653845,39.33959444363911L562.7802478173077,37.26862165662976L564.9874782692307,38.9307729403178L567.1947087211538,38.380833864212036L569.4019391730768,37.243004772398194L571.6091696249999,38.17809595002069L573.816400076923,38.94210828675165L576.0236305288461,39.63561177253723L578.2308609807692,40.275035169389525L580.4380914326923,39.58462768130834L582.6453218846154,39.12477215131123L584.8525523365385,38.778120279312134L587.0597827884616,40.477024051878175L589.2670132403846,38.94295718934802L591.4742436923077,38.985901673634835L593.6814741442307,39.282717969682494L595.8887045961538,39.396121369467835L598.0959350480769,39.75126226743061L600.3031655,40.831815401713065L602.510395951923,38.34198408656652L604.7176264038461,38.345030148824044L606.9248568557692,39.87535185284083L609.1320873076922,41.3961358865102L611.3393177596154,40.296057992511344L613.5465482115384,38.48654720518323L615.7537786634615,38.412093453937125L617.9610091153845,40.11419309510126L620.1682395673076,38.7672343518999L622.3754700192306,39.293304284413644L624.5827004711538,40.34254789352417L626.7899309230768,39.94670960638257L628.997161375,39.25115876727636L631.204391826923,41.176819403966256L633.4116222788462,37.92906787660388L635.6188527307693,39.30913382106359L637.8260831826923,38.562249342600516" style="fill: none;" fill="none"></path></g></g></g></g></g></g><g transform="translate(41, 377)" clip-path="url(#clip_1)"><clipPath id="clip_1"><rect width="1032" height="22"></rect></clipPath><g><g><line x1="0" y1="0" x2="0" y2="5" style="visibility: inherit;" fill="rgb(0, 0, 0)" stroke="rgb(204, 204, 204)" stroke-width="1px"></line><line x1="79.39677884615385" y1="0" x2="79.39677884615385" y2="5" style="visibility: inherit;" fill="rgb(0, 0, 0)" stroke="rgb(204, 204, 204)" stroke-width="1px"></line><line x1="158.7935576923077" y1="0" x2="158.7935576923077" y2="5" style="visibility: inherit;" fill="rgb(0, 0, 0)" stroke="rgb(204, 204, 204)" stroke-width="1px"></line><line x1="238.19033653846154" y1="0" x2="238.19033653846154" y2="5" style="visibility: inherit;" fill="rgb(0, 0, 0)" stroke="rgb(204, 204, 204)" stroke-width="1px"></line><line x1="317.5871153846154" y1="0" x2="317.5871153846154" y2="5" style="visibility: inherit;" fill="rgb(0, 0, 0)" stroke="rgb(204, 204, 204)" stroke-width="1px"></line><line x1="396.98389423076924" y1="0" x2="396.98389423076924" y2="5" style="visibility: inherit;" fill="rgb(0, 0, 0)" stroke="rgb(204, 204, 204)" stroke-width="1px"></line><line x1="476.3806730769231" y1="0" x2="476.3806730769231" y2="5" style="visibility: inherit;" fill="rgb(0, 0, 0)" stroke="rgb(204, 204, 204)" stroke-width="1px"></line><line x1="555.7774519230769" y1="0" x2="555.7774519230769" y2="5" style="visibility: inherit;" fill="rgb(0, 0, 0)" stroke="rgb(204, 204, 204)" stroke-width="1px"></line><line x1="635.1742307692308" y1="0" x2="635.1742307692308" y2="5" style="visibility: inherit;" fill="rgb(0, 0, 0)" stroke="rgb(204, 204, 204)" stroke-width="1px"></line><line x1="714.5710096153846" y1="0" x2="714.5710096153846" y2="5" style="visibility: inherit;" fill="rgb(0, 0, 0)" stroke="rgb(204, 204, 204)" stroke-width="1px"></line><line x1="793.9677884615385" y1="0" x2="793.9677884615385" y2="5" style="visibility: inherit;" fill="rgb(0, 0, 0)" stroke="rgb(204, 204, 204)" stroke-width="1px"></line><line x1="873.3645673076923" y1="0" x2="873.3645673076923" y2="5" style="visibility: inherit;" fill="rgb(0, 0, 0)" stroke="rgb(204, 204, 204)" stroke-width="1px"></line><line x1="952.7613461538461" y1="0" x2="952.7613461538461" y2="5" style="visibility: inherit;" fill="rgb(0, 0, 0)" stroke="rgb(204, 204, 204)" stroke-width="1px"></line><line x1="1032.158125" y1="0" x2="1032.158125" y2="5" style="visibility: inherit;" fill="rgb(0, 0, 0)" stroke="rgb(204, 204, 204)" stroke-width="1px"></line></g><g transform="translate(0, 8)"><text x="0" y="0" dx="0em" dy="0.95em" style="text-anchor: middle; visibility: hidden; font-family: Roboto, sans-serif; font-size: 12px; font-weight: 200;" fill="rgb(33, 33, 33)" stroke="none" stroke-width="1px">-10k</text><text x="79.39677884615385" y="0" dx="0em" dy="0.95em" style="text-anchor: middle; visibility: inherit; font-family: Roboto, sans-serif; font-size: 12px; font-weight: 200;" fill="rgb(33, 33, 33)" stroke="none" stroke-width="1px">0</text><text x="158.7935576923077" y="0" dx="0em" dy="0.95em" style="text-anchor: middle; visibility: inherit; font-family: Roboto, sans-serif; font-size: 12px; font-weight: 200;" fill="rgb(33, 33, 33)" stroke="none" stroke-width="1px">10k</text><text x="238.19033653846154" y="0" dx="0em" dy="0.95em" style="text-anchor: middle; visibility: inherit; font-family: Roboto, sans-serif; font-size: 12px; font-weight: 200;" fill="rgb(33, 33, 33)" stroke="none" stroke-width="1px">20k</text><text x="317.5871153846154" y="0" dx="0em" dy="0.95em" style="text-anchor: middle; visibility: inherit; font-family: Roboto, sans-serif; font-size: 12px; font-weight: 200;" fill="rgb(33, 33, 33)" stroke="none" stroke-width="1px">30k</text><text x="396.98389423076924" y="0" dx="0em" dy="0.95em" style="text-anchor: middle; visibility: inherit; font-family: Roboto, sans-serif; font-size: 12px; font-weight: 200;" fill="rgb(33, 33, 33)" stroke="none" stroke-width="1px">40k</text><text x="476.3806730769231" y="0" dx="0em" dy="0.95em" style="text-anchor: middle; visibility: inherit; font-family: Roboto, sans-serif; font-size: 12px; font-weight: 200;" fill="rgb(33, 33, 33)" stroke="none" stroke-width="1px">50k</text><text x="555.7774519230769" y="0" dx="0em" dy="0.95em" style="text-anchor: middle; visibility: inherit; font-family: Roboto, sans-serif; font-size: 12px; font-weight: 200;" fill="rgb(33, 33, 33)" stroke="none" stroke-width="1px">60k</text><text x="635.1742307692308" y="0" dx="0em" dy="0.95em" style="text-anchor: middle; visibility: inherit; font-family: Roboto, sans-serif; font-size: 12px; font-weight: 200;" fill="rgb(33, 33, 33)" stroke="none" stroke-width="1px">70k</text><text x="714.5710096153846" y="0" dx="0em" dy="0.95em" style="text-anchor: middle; visibility: inherit; font-family: Roboto, sans-serif; font-size: 12px; font-weight: 200;" fill="rgb(33, 33, 33)" stroke="none" stroke-width="1px">80k</text><text x="793.9677884615385" y="0" dx="0em" dy="0.95em" style="text-anchor: middle; visibility: inherit; font-family: Roboto, sans-serif; font-size: 12px; font-weight: 200;" fill="rgb(33, 33, 33)" stroke="none" stroke-width="1px">90k</text><text x="873.3645673076923" y="0" dx="0em" dy="0.95em" style="text-anchor: middle; visibility: inherit; font-family: Roboto, sans-serif; font-size: 12px; font-weight: 200;" fill="rgb(33, 33, 33)" stroke="none" stroke-width="1px">100k</text><text x="952.7613461538461" y="0" dx="0em" dy="0.95em" style="text-anchor: middle; visibility: inherit; font-family: Roboto, sans-serif; font-size: 12px; font-weight: 200;" fill="rgb(33, 33, 33)" stroke="none" stroke-width="1px">110k</text><text x="1032.158125" y="0" dx="0em" dy="0.95em" style="text-anchor: middle; visibility: hidden; font-family: Roboto, sans-serif; font-size: 12px; font-weight: 200;" fill="rgb(33, 33, 33)" stroke="none" stroke-width="1px">120k</text></g><line x1="0" y1="0" x2="1032.158125" y2="0" fill="rgb(0, 0, 0)" stroke="rgb(204, 204, 204)" stroke-width="1px"></line></g></g></g></g></svg>